<svg id="cityscape" xmlns="http://www.w3.org/2000/svg" width="74" height="74" viewBox="0 0 74 74">
  <g id="Group_39" data-name="Group 39" transform="translate(0)">
    <g id="Group_38" data-name="Group 38">
      <path id="Path_59" data-name="Path 59" d="M309.668,325.5a1.233,1.233,0,1,0-2.467,0v2.467a1.233,1.233,0,1,0,2.467,0Z" transform="translate(-262.801 -277.4)" fill="#ffdc7c"/>
      <path id="Path_60" data-name="Path 60" d="M308.433,426.667A1.234,1.234,0,0,0,307.2,427.9v4.933a1.233,1.233,0,0,0,2.467,0V427.9A1.234,1.234,0,0,0,308.433,426.667Z" transform="translate(-262.8 -365)" fill="#ffdc7c"/>
      <path id="Path_61" data-name="Path 61" d="M343.8,223.1a1.233,1.233,0,1,0-2.467,0v2.467a1.233,1.233,0,1,0,2.467,0Z" transform="translate(-292.001 -189.8)" fill="#ffdc7c"/>
      <path id="Path_62" data-name="Path 62" d="M309.668,274.3a1.233,1.233,0,0,0-2.467,0v2.467a1.233,1.233,0,0,0,2.467,0Z" transform="translate(-262.801 -233.6)" fill="#ffdc7c"/>
      <path id="Path_63" data-name="Path 63" d="M309.667,376.7a1.233,1.233,0,0,0-2.467,0v2.467a1.233,1.233,0,0,0,2.467,0V376.7Z" transform="translate(-262.8 -321.2)" fill="#ffdc7c"/>
      <path id="Path_64" data-name="Path 64" d="M343.8,274.3a1.233,1.233,0,0,0-2.467,0v2.467a1.233,1.233,0,0,0,2.467,0Z" transform="translate(-292.001 -233.6)" fill="#ffdc7c"/>
      <path id="Path_65" data-name="Path 65" d="M275.534,223.1a1.233,1.233,0,1,0-2.467,0v2.467a1.233,1.233,0,1,0,2.467,0Z" transform="translate(-233.6 -189.8)" fill="#ffdc7c"/>
      <path id="Path_66" data-name="Path 66" d="M309.668,223.1a1.233,1.233,0,1,0-2.467,0v2.467a1.233,1.233,0,1,0,2.467,0Z" transform="translate(-262.801 -189.8)" fill="#ffdc7c"/>
      <path id="Path_67" data-name="Path 67" d="M343.8,123.167V120.7a1.233,1.233,0,1,0-2.467,0v2.467a1.233,1.233,0,1,0,2.467,0Z" transform="translate(-292.001 -102.2)" fill="#ffdc7c"/>
      <path id="Path_68" data-name="Path 68" d="M275.534,274.3a1.233,1.233,0,0,0-2.467,0v2.467a1.233,1.233,0,0,0,2.467,0Z" transform="translate(-233.6 -233.6)" fill="#ffdc7c"/>
      <path id="Path_69" data-name="Path 69" d="M377.934,120.7a1.233,1.233,0,1,0-2.467,0v2.467a1.233,1.233,0,1,0,2.467,0Z" transform="translate(-321.2 -102.2)" fill="#ffdc7c"/>
      <path id="Path_70" data-name="Path 70" d="M274.3,324.267a1.234,1.234,0,0,0-1.233,1.233v2.467a1.233,1.233,0,1,0,2.467,0V325.5A1.234,1.234,0,0,0,274.3,324.267Z" transform="translate(-233.6 -277.4)" fill="#ffdc7c"/>
      <path id="Path_71" data-name="Path 71" d="M412.067,376.7a1.233,1.233,0,0,0-2.467,0v2.467a1.233,1.233,0,0,0,2.467,0V376.7Z" transform="translate(-350.4 -321.2)" fill="#ffdc7c"/>
      <path id="Path_72" data-name="Path 72" d="M410.833,426.667A1.234,1.234,0,0,0,409.6,427.9v4.933a1.233,1.233,0,0,0,2.467,0V427.9A1.234,1.234,0,0,0,410.833,426.667Z" transform="translate(-350.4 -365)" fill="#ffdc7c"/>
      <path id="Path_73" data-name="Path 73" d="M444.967,324.267a1.234,1.234,0,0,0-1.233,1.233v2.467a1.233,1.233,0,1,0,2.467,0V325.5A1.234,1.234,0,0,0,444.967,324.267Z" transform="translate(-379.601 -277.4)" fill="#ffdc7c"/>
      <path id="Path_74" data-name="Path 74" d="M308.433,66a1.234,1.234,0,0,0,1.233-1.233v-5.2L322,56.48V77.1a1.236,1.236,0,0,0,.8,1.156l9.066,3.4V94.367a1.233,1.233,0,1,0,2.467,0V80.8a1.236,1.236,0,0,0-.8-1.156l-9.066-3.4V52.433a1.233,1.233,0,0,0-2.467,0v1.5L308.134,57.4a1.233,1.233,0,0,0-.934,1.2v6.167A1.234,1.234,0,0,0,308.433,66Z" transform="translate(-262.8 -43.8)" fill="#ffdc7c"/>
      <path id="Path_75" data-name="Path 75" d="M446.2,274.3a1.233,1.233,0,0,0-2.467,0v2.467a1.233,1.233,0,0,0,2.467,0Z" transform="translate(-379.601 -233.6)" fill="#ffdc7c"/>
      <path id="Path_76" data-name="Path 76" d="M412.068,274.3a1.233,1.233,0,0,0-2.467,0v2.467a1.233,1.233,0,0,0,2.467,0Z" transform="translate(-350.401 -233.6)" fill="#ffdc7c"/>
      <path id="Path_77" data-name="Path 77" d="M343.8,376.7a1.233,1.233,0,0,0-2.467,0v2.467a1.233,1.233,0,0,0,2.467,0Z" transform="translate(-292.001 -321.2)" fill="#ffdc7c"/>
      <path id="Path_78" data-name="Path 78" d="M412.068,325.5a1.233,1.233,0,1,0-2.467,0v2.467a1.233,1.233,0,1,0,2.467,0Z" transform="translate(-350.401 -277.4)" fill="#ffdc7c"/>
      <path id="Path_79" data-name="Path 79" d="M342.567,426.667a1.234,1.234,0,0,0-1.233,1.233v4.933a1.233,1.233,0,0,0,2.467,0V427.9A1.234,1.234,0,0,0,342.567,426.667Z" transform="translate(-292.001 -365)" fill="#ffdc7c"/>
      <path id="Path_80" data-name="Path 80" d="M343.8,325.5a1.233,1.233,0,1,0-2.467,0v2.467a1.233,1.233,0,1,0,2.467,0Z" transform="translate(-292.001 -277.4)" fill="#ffdc7c"/>
      <path id="Path_81" data-name="Path 81" d="M259.9,200.467a1.234,1.234,0,0,0,1.233-1.233V159.767a1.234,1.234,0,0,0-.934-1.2l-19.733-4.933a1.234,1.234,0,0,0-1.533,1.2v27.133a1.233,1.233,0,0,0,2.467,0V156.414l17.267,4.317v38.5A1.234,1.234,0,0,0,259.9,200.467Z" transform="translate(-204.4 -131.401)" fill="#ffdc7c"/>
      <path id="Path_82" data-name="Path 82" d="M173.134,171.9a1.233,1.233,0,0,0-2.467,0v2.467a1.233,1.233,0,1,0,2.467,0Z" transform="translate(-146 -146)" fill="#ffdc7c"/>
      <path id="Path_83" data-name="Path 83" d="M173.134,120.7a1.233,1.233,0,1,0-2.467,0v2.467a1.233,1.233,0,1,0,2.467,0Z" transform="translate(-146 -102.2)" fill="#ffdc7c"/>
      <path id="Path_84" data-name="Path 84" d="M104.867,376.7a1.233,1.233,0,0,0-2.467,0v2.467a1.233,1.233,0,0,0,2.467,0V376.7Z" transform="translate(-87.6 -321.2)" fill="#ffdc7c"/>
      <path id="Path_85" data-name="Path 85" d="M35.366,248.8a1.234,1.234,0,0,0,1.233-1.233V241.4H48.933v30.833a1.233,1.233,0,0,0,2.467,0V240.167a1.234,1.234,0,0,0-1.233-1.233h-14.8a1.234,1.234,0,0,0-1.233,1.233v7.4A1.234,1.234,0,0,0,35.366,248.8Z" transform="translate(-29.2 -204.401)" fill="#ffdc7c"/>
      <path id="Path_86" data-name="Path 86" d="M136.533,171.9v2.467a1.233,1.233,0,1,0,2.467,0V171.9a1.233,1.233,0,0,0-2.467,0Z" transform="translate(-116.8 -146)" fill="#ffdc7c"/>
      <path id="Path_87" data-name="Path 87" d="M173.134,69.5a1.233,1.233,0,0,0-2.467,0v2.467a1.233,1.233,0,0,0,2.467,0Z" transform="translate(-146 -58.4)" fill="#ffdc7c"/>
      <path id="Path_88" data-name="Path 88" d="M103.633,426.667A1.234,1.234,0,0,0,102.4,427.9v4.933a1.233,1.233,0,0,0,2.467,0V427.9A1.234,1.234,0,0,0,103.633,426.667Z" transform="translate(-87.6 -365)" fill="#ffdc7c"/>
      <path id="Path_89" data-name="Path 89" d="M72.767,348.933H70.3v-7.575a4.933,4.933,0,1,0-2.467,0v7.575H37v-5.058a6.167,6.167,0,1,0-2.467,0v5.058H7.4V336.475a6.167,6.167,0,1,0-2.467,0v12.458h-3.7a1.233,1.233,0,0,0,0,2.467H72.767a1.233,1.233,0,0,0,0-2.467Zm-70.3-18.5a3.7,3.7,0,1,1,3.7,3.7A3.7,3.7,0,0,1,2.467,330.433Zm29.6,7.4a3.7,3.7,0,1,1,3.7,3.7A3.7,3.7,0,0,1,32.067,337.833ZM66.6,336.6a2.467,2.467,0,1,1,2.467,2.467A2.469,2.469,0,0,1,66.6,336.6Z" transform="translate(0 -277.399)" fill="#ffdc7c"/>
      <path id="Path_90" data-name="Path 90" d="M68.267,427.9v4.933a1.233,1.233,0,1,0,2.467,0V427.9a1.233,1.233,0,1,0-2.467,0Z" transform="translate(-58.4 -365)" fill="#ffdc7c"/>
      <path id="Path_91" data-name="Path 91" d="M104.868,274.3a1.233,1.233,0,0,0-2.467,0v2.467a1.233,1.233,0,0,0,2.467,0Z" transform="translate(-87.601 -233.6)" fill="#ffdc7c"/>
      <path id="Path_92" data-name="Path 92" d="M104.868,325.5a1.233,1.233,0,1,0-2.467,0v2.467a1.233,1.233,0,1,0,2.467,0Z" transform="translate(-87.601 -277.4)" fill="#ffdc7c"/>
      <path id="Path_93" data-name="Path 93" d="M68.267,274.3v2.467a1.233,1.233,0,0,0,2.467,0V274.3a1.233,1.233,0,0,0-2.467,0Z" transform="translate(-58.4 -233.6)" fill="#ffdc7c"/>
      <path id="Path_94" data-name="Path 94" d="M173.134,325.5a1.233,1.233,0,1,0-2.467,0v2.467a1.233,1.233,0,1,0,2.467,0Z" transform="translate(-146 -277.4)" fill="#ffdc7c"/>
      <path id="Path_95" data-name="Path 95" d="M207.268,223.1a1.233,1.233,0,1,0-2.467,0v2.467a1.233,1.233,0,1,0,2.467,0Z" transform="translate(-175.201 -189.8)" fill="#ffdc7c"/>
      <path id="Path_96" data-name="Path 96" d="M207.268,171.9a1.233,1.233,0,0,0-2.467,0v2.467a1.233,1.233,0,1,0,2.467,0Z" transform="translate(-175.201 -146)" fill="#ffdc7c"/>
      <path id="Path_97" data-name="Path 97" d="M207.268,274.3a1.233,1.233,0,0,0-2.467,0v2.467a1.233,1.233,0,0,0,2.467,0Z" transform="translate(-175.201 -233.6)" fill="#ffdc7c"/>
      <path id="Path_98" data-name="Path 98" d="M206.033,324.267A1.234,1.234,0,0,0,204.8,325.5v2.467a1.233,1.233,0,1,0,2.467,0V325.5A1.234,1.234,0,0,0,206.033,324.267Z" transform="translate(-175.2 -277.4)" fill="#ffdc7c"/>
      <path id="Path_99" data-name="Path 99" d="M207.268,120.7a1.233,1.233,0,1,0-2.467,0v2.467a1.233,1.233,0,1,0,2.467,0Z" transform="translate(-175.201 -102.2)" fill="#ffdc7c"/>
      <path id="Path_100" data-name="Path 100" d="M173.134,376.7a1.233,1.233,0,0,0-2.467,0v2.467a1.233,1.233,0,0,0,2.467,0Z" transform="translate(-146 -321.2)" fill="#ffdc7c"/>
      <path id="Path_101" data-name="Path 101" d="M103.634,32.067a1.234,1.234,0,0,0,1.233-1.233v-9.1l4.251-2.125a1.235,1.235,0,0,0,.682-1.1V8.162l6.167-3.083,6.167,3.083V18.5a1.233,1.233,0,0,0,2.467,0V7.4a1.234,1.234,0,0,0-.682-1.1L117.2,2.938v-1.7a1.233,1.233,0,1,0-2.467,0v1.7L108.016,6.3a1.235,1.235,0,0,0-.682,1.1V17.738l-4.251,2.125a1.235,1.235,0,0,0-.682,1.1v9.867A1.234,1.234,0,0,0,103.634,32.067Z" transform="translate(-87.601)" fill="#ffdc7c"/>
      <path id="Path_102" data-name="Path 102" d="M173.134,274.3a1.233,1.233,0,0,0-2.467,0v2.467a1.233,1.233,0,0,0,2.467,0Z" transform="translate(-146 -233.6)" fill="#ffdc7c"/>
      <path id="Path_103" data-name="Path 103" d="M171.9,426.667a1.234,1.234,0,0,0-1.233,1.233v4.933a1.233,1.233,0,0,0,2.467,0V427.9A1.234,1.234,0,0,0,171.9,426.667Z" transform="translate(-146 -365)" fill="#ffdc7c"/>
      <path id="Path_104" data-name="Path 104" d="M207.268,69.5a1.233,1.233,0,0,0-2.467,0v2.467a1.233,1.233,0,0,0,2.467,0Z" transform="translate(-175.201 -58.4)" fill="#ffdc7c"/>
      <path id="Path_105" data-name="Path 105" d="M173.134,223.1a1.233,1.233,0,1,0-2.467,0v2.467a1.233,1.233,0,1,0,2.467,0Z" transform="translate(-146 -189.8)" fill="#ffdc7c"/>
    </g>
  </g>
</svg>
