<svg id="instagram" xmlns="http://www.w3.org/2000/svg" xmlns:xlink="http://www.w3.org/1999/xlink" width="25" height="25" viewBox="0 0 25 25"><defs><style>.cls-1{fill:#fff;}.cls-2{fill:#475993;}</style></defs><title>icon-fb</title><g id="Слой_2" data-name="Слой 2"><g id="Слой_1-2" data-name="Слой 1"><g id="Group_78" data-name="Group 78"><rect id="Rectangle_30" data-name="Rectangle 30" class="cls-1" x="9" y="4" width="13" height="21"/><path id="facebook" class="cls-2" d="M21.63,0H3.37A3.37,3.37,0,0,0,0,3.37H0V21.63A3.37,3.37,0,0,0,3.37,25h9V16.07H10.07a.56.56,0,0,1-.55-.55V12.64a.55.55,0,0,1,.55-.55h2.32V9.31c0-3.23,2-5,4.85-5H19.6a.55.55,0,0,1,.54.55h0V7.3a.55.55,0,0,1-.54.55H18.14c-1.56,0-1.87.74-1.87,1.84v2.4h3.45a.55.55,0,0,1,.54.55v.07l-.34,2.88a.55.55,0,0,1-.55.48H16.29l0,8.93h5.36A3.37,3.37,0,0,0,25,21.63V3.37A3.37,3.37,0,0,0,21.63,0Z"/></g></g></g></svg>