<svg id="hotel" xmlns="http://www.w3.org/2000/svg" width="79.773" height="79.773" viewBox="0 0 79.773 79.773">
  <g id="Group_25" data-name="Group 25" transform="translate(0 34.568)">
    <g id="Group_24" data-name="Group 24">
      <path id="Path_51" data-name="Path 51" d="M50.523,224.089v-12.1A3.994,3.994,0,0,0,46.534,208H9.307a3.994,3.994,0,0,0-3.989,3.989v12.1A6.66,6.66,0,0,0,0,230.6v21.273a1.33,1.33,0,0,0,1.33,1.33H6.648a1.33,1.33,0,0,0,1.33-1.33v-3.989H47.864v3.989a1.33,1.33,0,0,0,1.33,1.33h5.318a1.33,1.33,0,0,0,1.33-1.33V230.6A6.66,6.66,0,0,0,50.523,224.089Zm-42.546-12.1a1.332,1.332,0,0,1,1.33-1.33H46.534a1.332,1.332,0,0,1,1.33,1.33v11.966H45.2v-5.318a3.994,3.994,0,0,0-3.989-3.989H33.239a3.994,3.994,0,0,0-3.989,3.989v5.318H26.591v-5.318a3.994,3.994,0,0,0-3.989-3.989H14.625a3.994,3.994,0,0,0-3.989,3.989v5.318H7.977Zm34.568,6.648v5.318H31.909v-5.318a1.332,1.332,0,0,1,1.33-1.33h7.977A1.332,1.332,0,0,1,42.546,218.636Zm-18.614,0v5.318H13.3v-5.318a1.332,1.332,0,0,1,1.33-1.33H22.6A1.332,1.332,0,0,1,23.932,218.636Zm29.25,31.909H50.523v-3.989a1.33,1.33,0,0,0-1.33-1.33H6.648a1.33,1.33,0,0,0-1.33,1.33v3.989H2.659V239.909H53.182Zm0-13.3H2.659V230.6a3.994,3.994,0,0,1,3.989-3.989H49.193a3.994,3.994,0,0,1,3.989,3.989Z" transform="translate(0 -208)" fill="#ffdc7c"/>
    </g>
  </g>
  <g id="Group_27" data-name="Group 27" transform="translate(58.5 50.523)">
    <g id="Group_26" data-name="Group 26">
      <path id="Path_52" data-name="Path 52" d="M371.943,304H353.33a1.33,1.33,0,0,0-1.33,1.33v19.943h2.659V317.3h15.955v7.977h2.659V305.33A1.33,1.33,0,0,0,371.943,304Zm-1.33,10.636H354.659v-7.977h15.955Z" transform="translate(-352 -304)" fill="#ffdc7c"/>
    </g>
  </g>
  <g id="Group_29" data-name="Group 29" transform="translate(66.478 55.841)">
    <g id="Group_28" data-name="Group 28">
      <rect id="Rectangle_19" data-name="Rectangle 19" width="5.318" height="2.659" fill="#ffdc7c"/>
    </g>
  </g>
  <g id="Group_31" data-name="Group 31" transform="translate(62.488 30.58)">
    <g id="Group_30" data-name="Group 30">
      <path id="Path_53" data-name="Path 53" d="M389.225,192.885l-2.659-7.977A1.33,1.33,0,0,0,385.3,184h-5.318a1.33,1.33,0,0,0-1.262.909l-2.659,7.977a1.33,1.33,0,0,0,1.262,1.75h3.989v3.989h-2.659v2.659h7.977v-2.659h-2.659v-3.989h3.989a1.332,1.332,0,0,0,1.262-1.751Zm-10.054-.908,1.774-5.318h3.4l1.772,5.318Z" transform="translate(-375.997 -184)" fill="#ffdc7c"/>
    </g>
  </g>
  <g id="Group_33" data-name="Group 33" transform="translate(0 0)">
    <g id="Group_32" data-name="Group 32" transform="translate(0 0)">
      <path id="Path_54" data-name="Path 54" d="M78.987,17.4,40.43.116a1.336,1.336,0,0,0-1.088,0L.786,17.4A1.331,1.331,0,0,0,0,18.614V34.568H2.659V19.474L39.887,2.787,77.114,19.475V34.568h2.659V18.614A1.331,1.331,0,0,0,78.987,17.4Z" transform="translate(0 0)" fill="#ffdc7c"/>
    </g>
  </g>
  <g id="Group_35" data-name="Group 35" transform="translate(30.58 10.636)">
    <g id="Group_34" data-name="Group 34">
      <path id="Path_55" data-name="Path 55" d="M202.485,71.757l-2.623.441a6.542,6.542,0,0,1,.093,1.109,6.641,6.641,0,1,1-4.43-6.269l.885-2.508a9.308,9.308,0,1,0,6.2,8.776A9.407,9.407,0,0,0,202.485,71.757Z" transform="translate(-184 -64)" fill="#ffdc7c"/>
    </g>
  </g>
  <g id="Group_37" data-name="Group 37" transform="translate(36.287 11.026)">
    <g id="Group_36" data-name="Group 36">
      <path id="Path_56" data-name="Path 56" d="M230.31,66.344l-8.367,8.367-1.719-1.719-1.88,1.88L221,77.531a1.329,1.329,0,0,0,1.88,0l9.307-9.307Z" transform="translate(-218.344 -66.344)" fill="#ffdc7c"/>
    </g>
  </g>
</svg>
