<svg id="instagram" xmlns="http://www.w3.org/2000/svg" xmlns:xlink="http://www.w3.org/1999/xlink" width="25" height="25" viewBox="0 0 25 25">
  <defs>
    <linearGradient id="linear-gradient" x1="0.5" y1="-0.451" x2="0.5" y2="1.462" gradientUnits="objectBoundingBox">
      <stop offset="0" stop-color="#e09b3d"/>
      <stop offset="0.3" stop-color="#c74c4d"/>
      <stop offset="0.6" stop-color="#c21975"/>
      <stop offset="1" stop-color="#7024c4"/>
    </linearGradient>
    <linearGradient id="linear-gradient-2" y1="-1.396" y2="6.586" xlink:href="#linear-gradient"/>
    <linearGradient id="linear-gradient-3" y1="0.008" y2="0.998" xlink:href="#linear-gradient"/>
  </defs>
  <path id="Path_30" data-name="Path 30" d="M139.466,133a6.466,6.466,0,1,0,6.466,6.466A6.473,6.473,0,0,0,139.466,133Zm0,10.417a3.951,3.951,0,1,1,3.951-3.951A3.951,3.951,0,0,1,139.466,143.417Z" transform="translate(-126.966 -126.966)" fill="url(#linear-gradient)"/>
  <circle id="Ellipse_5" data-name="Ellipse 5" cx="1.549" cy="1.549" r="1.549" transform="translate(17.429 4.533)" fill="url(#linear-gradient-2)"/>
  <path id="Path_135" data-name="Path 135" d="M17.553,0H7.448A7.456,7.456,0,0,0,0,7.448v10.1A7.456,7.456,0,0,0,7.448,25h10.1A7.456,7.456,0,0,0,25,17.553V7.448A7.456,7.456,0,0,0,17.553,0Zm4.933,17.553a4.933,4.933,0,0,1-4.933,4.933H7.448a4.933,4.933,0,0,1-4.933-4.933V7.448A4.933,4.933,0,0,1,7.448,2.515h10.1a4.933,4.933,0,0,1,4.933,4.933v10.1Z" fill="url(#linear-gradient-3)"/>
</svg>
