<svg id="instagram" xmlns="http://www.w3.org/2000/svg" xmlns:xlink="http://www.w3.org/1999/xlink" width="25" height="25" viewBox="0 0 25 25"><defs><style>.cls-1{fill:url(#Безымянный_градиент_3);}.cls-2{fill:url(#Безымянный_градиент_3-2);}.cls-3{fill:url(#Безымянный_градиент_3-3);}</style><linearGradient id="Безымянный_градиент_3" x1="-79.77" y1="158.2" x2="-79.77" y2="156.29" gradientTransform="matrix(12.93, 0, 0, -12.93, 1044.12, 2046.1)" gradientUnits="userSpaceOnUse"><stop offset="0" stop-color="#e09b3d"/><stop offset="0.3" stop-color="#c74c4d"/><stop offset="0.6" stop-color="#c21975"/><stop offset="1" stop-color="#7024c4"/></linearGradient><linearGradient id="Безымянный_градиент_3-2" x1="-58.42" y1="124.05" x2="-58.42" y2="116.07" gradientTransform="matrix(3.1, 0, 0, -3.1, 199.96, 384.51)" xlink:href="#Безымянный_градиент_3"/><linearGradient id="Безымянный_градиент_3-3" x1="-83.02" y1="163.08" x2="-83.02" y2="162.09" gradientTransform="matrix(25, 0, 0, -25, 2088, 4077.28)" xlink:href="#Безымянный_градиент_3"/></defs><title>icon-instagram</title><g id="Слой_2" data-name="Слой 2"><g id="instagram"><path id="Path_30" data-name="Path 30" class="cls-1" d="M12.5,6A6.47,6.47,0,1,0,19,12.5,6.47,6.47,0,0,0,12.5,6Zm0,10.42a3.95,3.95,0,1,1,3.95-3.95,4,4,0,0,1-3.95,3.95Z"/><circle id="Ellipse_5" data-name="Ellipse 5" class="cls-2" cx="18.98" cy="6.08" r="1.55"/><path id="Path_135" data-name="Path 135" class="cls-3" d="M17.55,0H7.45A7.46,7.46,0,0,0,0,7.45v10.1A7.45,7.45,0,0,0,7.45,25h10.1A7.45,7.45,0,0,0,25,17.55V7.45A7.46,7.46,0,0,0,17.55,0Zm4.94,17.55a4.94,4.94,0,0,1-4.94,4.94H7.45a4.94,4.94,0,0,1-4.94-4.94h0V7.45A4.93,4.93,0,0,1,7.45,2.52h10.1a4.93,4.93,0,0,1,4.93,4.93h0v10.1Z"/></g></g></svg>