<svg xmlns="http://www.w3.org/2000/svg" width="166.65" height="79.334" viewBox="0 0 166.65 79.334">
  <g id="park-logo" transform="translate(0 0.078)">
    <g id="PP_Изображение" data-name="PP Изображение" transform="translate(60.856 -0.078)">
      <path id="Path_2" data-name="Path 2" d="M145.48-.012c2.543,0,5.089-.062,7.628,0a18.991,18.991,0,0,1,7.174,1.333,9.366,9.366,0,0,1,5.738,7.7,11.955,11.955,0,0,1-1.151,7.659,12.866,12.866,0,0,1-1.333,1.778.689.689,0,0,1-.591.138,6.374,6.374,0,0,1-2.623-1.574.622.622,0,0,1-.124-.569,10.152,10.152,0,0,0,1.333-5.036,10.694,10.694,0,0,0-.951-5.014,7.248,7.248,0,0,0-5.445-4,38.754,38.754,0,0,0-8.121-.444c-.591,0-.933.364-1.045,1.022a7.77,7.77,0,0,0-.129,1.333V35.943a9.487,9.487,0,0,0,.182,1.578,1.64,1.64,0,0,0,1.4,1.431,24.471,24.471,0,0,0,2.907.284c.511.022.711.2.645.7a2.474,2.474,0,0,0,0,.48c0,.3-.138.418-.445.409H137.706c-.244,0-.689-.067-.707-.16a4.8,4.8,0,0,1,0-1.262c0-.058.236-.124.369-.138.671-.067,1.333-.076,2.009-.178a1.908,1.908,0,0,0,1.8-1.858,12.041,12.041,0,0,0,.12-1.645V5.184a9.884,9.884,0,0,0-.2-1.951,1.778,1.778,0,0,0-1.778-1.574,18.224,18.224,0,0,0-1.911-.111c-.36,0-.507-.116-.5-.493C136.937-.279,136.785-.061,138-.07h7.41Z" transform="translate(-136.91 0.078)" fill="#fff"/>
      <path id="Path_3" data-name="Path 3" d="M190.79.621c.889-.138,1.64-.289,2.422-.378A105.8,105.8,0,0,1,203.969.025c2.418-.031,4.836,0,7.254,0,.489,0,.658.133.64.631-.04,1.133.089.969-1.013,1a11.8,11.8,0,0,0-1.485.124,2.011,2.011,0,0,0-1.778,2.067c-.062.889-.107,1.734-.107,2.6V34.9c0,.76.04,1.525.107,2.285.124,1.391.889,2.062,2.44,2.134.444.027.92.053,1.382.062.351,0,.444.182.444.511.027,1.067.036,1.067-1.049,1.067H198.538c-.218,0-.622-.1-.631-.191a5.159,5.159,0,0,1,.036-1.253c0-.049.249-.1.382-.111.76-.053,1.534-.036,2.28-.151,1.778-.28,2.28-.858,2.365-2.667V4.684a10.438,10.438,0,0,0-.111-1.574,1.058,1.058,0,0,0-1.2-1.027c-2.222.053-4.481.036-6.7.253a2.919,2.919,0,0,1-2.534-.693A10.334,10.334,0,0,0,190.79.621Z" transform="translate(-166.84 0.036)" fill="#fff"/>
      <path id="Path_4" data-name="Path 4" d="M186.726,26.916a22.138,22.138,0,0,1-8.405-1.631,9.264,9.264,0,0,1-5.658-7.748,11.881,11.881,0,0,1,.973-7.112,22.468,22.468,0,0,1,1.373-2.085.547.547,0,0,1,.729-.218,7.112,7.112,0,0,1,2.574,1.462.564.564,0,0,1,.116.818,10.964,10.964,0,0,0-.493,9.5c1.018,2.667,3.236,3.974,5.912,4.525a29.336,29.336,0,0,0,3.64.444c.445.036.631.147.578.591v.32C188.046,27.107,188.219,26.894,186.726,26.916Z" transform="translate(-156.691 -4.443)" fill="#fff"/>
      <path id="Path_5" data-name="Path 5" d="M175.117,46.63c-1.533.209-2.947.444-4.365.582-.889.093-1.778.071-2.667.124-.4,0-.6-.1-.56-.538s-.12-1.036.1-1.333.813-.138,1.24-.2c1.071-.147,2.138-.307,3.209-.444a.676.676,0,0,1,.444.089C173.343,45.435,174.148,45.981,175.117,46.63Z" transform="translate(-153.905 -24.86)" fill="#fff"/>
    </g>
    <g id="waves_Изображение" data-name="waves Изображение" transform="translate(37.449 17.412)">
      <path id="Path_6" data-name="Path 6" d="M130.224,45.48a8.445,8.445,0,0,1-5.245,2.609,31.356,31.356,0,0,1-4.565.276c-3.058-.031-5.992-.529-8.259-2.858a8.507,8.507,0,0,1-4.138,2.342,21.638,21.638,0,0,1-8.765.236,8.965,8.965,0,0,1-4.609-2.058c-.2-.173-.382-.351-.569-.525-2.751,2.774-6.267,2.876-9.779,2.907v2.12a.582.582,0,0,0,.169.058,27.6,27.6,0,0,0,9.214-1.08,1.111,1.111,0,0,1,.662-.058,26.3,26.3,0,0,0,8.672,1.151,27.008,27.008,0,0,0,8.374-1,2.458,2.458,0,0,1,1.587,0,25.836,25.836,0,0,0,7.845.991,27.536,27.536,0,0,0,9.2-1.16.854.854,0,0,1,.516,0,23.923,23.923,0,0,0,7.556,1.133,29.075,29.075,0,0,0,8.725-.782,5.152,5.152,0,0,1,3.076,0,28.888,28.888,0,0,0,8.565.782,24.234,24.234,0,0,0,7.708-1.142.942.942,0,0,1,.564,0,27.3,27.3,0,0,0,9.1,1.133c.284,0,.445-.08.422-.391V48.733c0-.311-.142-.4-.444-.387h-1.6c-2.894-.142-5.654-.653-7.81-2.889a7.205,7.205,0,0,1-3.36,2.138,20.092,20.092,0,0,1-3.556.7,20.678,20.678,0,0,1-6.836-.378,8.41,8.41,0,0,1-4.352-2.445,8.934,8.934,0,0,1-5.178,2.614,23.518,23.518,0,0,1-6.321.191A9.85,9.85,0,0,1,130.224,45.48Zm45.925-1.036V42.221c-3.556-.053-7.063-.173-9.779-2.9-2.249,1.778-2.974,2.222-5.4,2.578a28.825,28.825,0,0,1-4.992.258c-2.849-.093-5.583-.649-7.7-2.854a2.492,2.492,0,0,0-.213.178,8.157,8.157,0,0,1-3.925,2.169,21.66,21.66,0,0,1-8.521.262,9.152,9.152,0,0,1-4.814-2.089c-.2-.173-.382-.356-.48-.445l-3.249,2.134c.938.493,1.845,1.058,2.814,1.471a19.758,19.758,0,0,0,6.916,1.333,31.2,31.2,0,0,0,9.428-.622,7.556,7.556,0,0,1,4.16,0,29.308,29.308,0,0,0,8.632.653,23.029,23.029,0,0,0,7.072-1.107.809.809,0,0,1,.511,0,19.206,19.206,0,0,0,4.889,1C173.038,44.337,174.585,44.373,176.15,44.444Zm-91.886-.062a27.392,27.392,0,0,0,8.548-.889,4.4,4.4,0,0,1,2.5,0,34.241,34.241,0,0,0,14.015.382A19.428,19.428,0,0,1,112,43.222a15.885,15.885,0,0,1,2.72.609,38.076,38.076,0,0,0,11.886.2c.8-.1,1.6-.32,2.382-.485-.92-.618-1.778-1.2-2.667-1.778a.636.636,0,0,0-.444-.093,21.7,21.7,0,0,1-7.205.373,9.81,9.81,0,0,1-6.485-2.729h-.124a8.485,8.485,0,0,1-4.445,2.423,21.411,21.411,0,0,1-6.094.4,14.464,14.464,0,0,1-4.525-.889A8.272,8.272,0,0,1,94.06,39.27c-2.756,2.783-6.272,2.88-9.81,2.938Z" transform="translate(-84.25 -39.27)" fill="#d5ae44"/>
      <path id="Path_7" data-name="Path 7" d="M130.241,53.234a9.821,9.821,0,0,0,6.592,2.8,23.519,23.519,0,0,0,6.321-.191,8.934,8.934,0,0,0,5.178-2.614,8.41,8.41,0,0,0,4.352,2.445,20.678,20.678,0,0,0,6.836.378,20.091,20.091,0,0,0,3.556-.7,7.205,7.205,0,0,0,3.312-2.116c2.156,2.222,4.916,2.747,7.81,2.889.533.027,1.067,0,1.6,0,.284,0,.445.076.445.387v1.436c0,.311-.138.391-.422.391a27.768,27.768,0,0,1-9.1-1.133.942.942,0,0,0-.564,0,24.234,24.234,0,0,1-7.708,1.142,28.875,28.875,0,0,1-8.565-.782,5.152,5.152,0,0,0-3.076,0,29.049,29.049,0,0,1-8.725.782,23.923,23.923,0,0,1-7.556-1.133.853.853,0,0,0-.516,0,27.309,27.309,0,0,1-9.2,1.16,25.392,25.392,0,0,1-7.845-.991,2.458,2.458,0,0,0-1.587,0,26.485,26.485,0,0,1-8.374,1,26.179,26.179,0,0,1-8.672-1.151,1.111,1.111,0,0,0-.662.058,27.585,27.585,0,0,1-9.214,1.08.582.582,0,0,1-.169-.058V56.164c3.525-.031,7.041-.133,9.779-2.907.187.173.373.351.569.525a8.966,8.966,0,0,0,4.641,2.058,21.638,21.638,0,0,0,8.779-.236,8.579,8.579,0,0,0,4.138-2.342c2.267,2.329,5.2,2.827,8.259,2.858a31.355,31.355,0,0,0,4.565-.276A8.445,8.445,0,0,0,130.241,53.234Z" transform="translate(-84.267 -47.025)" fill="#d5ae44"/>
      <path id="Path_8" data-name="Path 8" d="M229.656,44.461c-1.582-.071-3.111-.107-4.663-.222a19.206,19.206,0,0,1-4.889-1,.809.809,0,0,0-.511,0,23.029,23.029,0,0,1-7.072,1.129,29.308,29.308,0,0,1-8.632-.653,7.556,7.556,0,0,0-4.16,0,31.2,31.2,0,0,1-9.428.622A19.758,19.758,0,0,1,183.384,43c-.969-.413-1.876-.978-2.814-1.471l3.249-2.134c.1.089.284.271.48.445a9.152,9.152,0,0,0,4.818,2.089,21.66,21.66,0,0,0,8.534-.267,8.157,8.157,0,0,0,3.96-2.187,2.5,2.5,0,0,1,.213-.178c2.116,2.222,4.849,2.76,7.7,2.854a28.826,28.826,0,0,0,5.018-.258c2.423-.342,3.147-.782,5.4-2.578,2.694,2.729,6.187,2.849,9.779,2.9Z" transform="translate(-137.756 -39.287)" fill="#d5ae44"/>
      <path id="Path_9" data-name="Path 9" d="M84.28,44.382V42.208c3.556-.058,7.054-.156,9.81-2.938a8.272,8.272,0,0,0,2.934,1.978,14.464,14.464,0,0,0,4.525.889,21.411,21.411,0,0,0,6.094-.4,8.485,8.485,0,0,0,4.445-2.423h.124a9.841,9.841,0,0,0,6.485,2.729,21.7,21.7,0,0,0,7.241-.351.636.636,0,0,1,.444.093c.889.569,1.734,1.156,2.667,1.778-.787.164-1.578.382-2.383.484a38.075,38.075,0,0,1-11.886-.2,15.519,15.519,0,0,0-2.72-.609,18.229,18.229,0,0,0-2.667.653,34.234,34.234,0,0,1-14.015-.382,4.4,4.4,0,0,0-2.5,0A28.536,28.536,0,0,1,84.28,44.382Z" transform="translate(-84.267 -39.27)" fill="#d5ae44"/>
    </g>
    <g id="Premium_Park_Изображение" data-name="Premium_Park Изображение" transform="translate(0 46.326)">
      <path id="Path_10" data-name="Path 10" d="M348.91,104.333a3.175,3.175,0,0,1,.173.738v12.095c.209-.178.329-.271.444-.378l3.431-3.427a.885.885,0,0,0,.111-.116c.173-.28.342-.56.516-.836l-.916-.444c-.142-.547-.1-.613.5-.618h3.707v.751a3.379,3.379,0,0,0-2.476,1.427c-.7.707-1.449,1.467-2.222,2.222l.289.476q1.716,2.725,3.431,5.458c.889,1.422.889,1.422,2.44,1.9v.649c-.813,0-1.631-.062-2.431,0a1.534,1.534,0,0,1-1.671-.929c-1.089-1.911-2.271-3.774-3.418-5.654-.089-.147-.191-.284-.329-.489-.444.484-.889.92-1.3,1.382a.729.729,0,0,0-.107.444v3.147c0,1.049.209,1.213,1.249,1.3a1.947,1.947,0,0,1,.222.044c0,.133.036.253.036.373a2.794,2.794,0,0,1-.044.36h-5.125c-.116,0-.32-.227-.307-.333s.187-.413.293-.413c1.165,0,1.333-.444,1.333-1.578V108.027c-.04-1.809-.311-1.716-1.6-1.858-.147-.413-.049-.6.444-.711.889-.209,1.778-.529,2.631-.822a2.188,2.188,0,0,0,.444-.316Z" transform="translate(-191.688 -104.32)" fill="#d5ae44"/>
      <path id="Path_11" data-name="Path 11" d="M210.42,131.866c0,.093.031.2.031.3s-.022.244-.036.391h-5.049v-.7a1.28,1.28,0,0,1,.218-.053c.889-.076,1.129-.262,1.129-1.138,0-2.609,0-5.223-.084-7.832a2.24,2.24,0,0,0-1.3-2.222,2.448,2.448,0,0,0-2.614.6,9.409,9.409,0,0,0-1.231,1.391,1.134,1.134,0,0,0-.178.645q0,3.44,0,6.876a7.039,7.039,0,0,0,.058.747c.08.684.262.889.933.889.3,0,.445.084.445.422s-.218.378-.489.378h-4.565c-.191-.693-.169-.729.467-.8s.8-.3.8-.973c0-1.778.027-3.556,0-5.334a23.741,23.741,0,0,0-.129-3.085,1.984,1.984,0,0,0-3.338-1.436,13.155,13.155,0,0,0-1.778,1.742.791.791,0,0,0-.133.493v7.308a1.591,1.591,0,0,0,.236.951c.182.213.6.213.889.356a.542.542,0,0,1,.28.387c0,.129-.187.365-.289.365h-5.041c-.173-.729-.156-.751.489-.791.733-.044.973-.258,1.071-.991a7.634,7.634,0,0,0,.036-.956v-6.881a6.164,6.164,0,0,0,0-.64c-.089-.8-.3-1-1.1-1.093-.16,0-.32-.031-.5-.044-.133-.4-.107-.609.4-.733a22.848,22.848,0,0,0,2.711-.889c.556-.218.671-.182.7.444,0,.471.044.942.071,1.534.413-.369.716-.658,1.04-.925a4.614,4.614,0,0,1,3.836-1.191,3.076,3.076,0,0,1,2.52,1.88c.036.084.071.164.111.244a1.827,1.827,0,0,0,.178.169,10.938,10.938,0,0,1,.889-.991,4.627,4.627,0,0,1,3.636-1.333,3.235,3.235,0,0,1,3.209,3.111,13.6,13.6,0,0,1,.107,1.591v6.134C209.06,131.546,209.113,131.626,210.42,131.866Z" transform="translate(-105.301 -112.655)" fill="#d5ae44"/>
      <path id="Path_12" data-name="Path 12" d="M102.484,131.851v.658H97.5c-.222-.6-.178-.693.444-.747a.756.756,0,0,0,.782-.827c0-2.72.027-5.436-.031-8.156a2.126,2.126,0,0,0-1.2-2.16,2.4,2.4,0,0,0-2.56.56,13.53,13.53,0,0,0-1.387,1.467.942.942,0,0,0-.169.587v7.041a5.3,5.3,0,0,0,.08.791.729.729,0,0,0,.809.685c.582-.022.658.258.511.765-.12,0-.253.036-.391.04H89.9c-.284,0-.524,0-.52-.4s.2-.382.48-.4c.889-.044,1.169-.307,1.178-1.213v-8.108c0-.889-.258-1.147-1.169-1.249-.218-.027-.476.044-.484-.324s.222-.356.471-.444c.929-.293,1.849-.6,2.756-.947.476-.182.6-.138.631.369s.058,1.013.093,1.614c.444-.4.818-.738,1.2-1.04a4.552,4.552,0,0,1,3.3-1.1,3.205,3.205,0,0,1,3.009,2.222l.2.16a2.853,2.853,0,0,1,.342-.591,5.334,5.334,0,0,1,3.343-1.8,3.336,3.336,0,0,1,3.969,3,12.819,12.819,0,0,1,.116,1.8q0,2.934,0,5.863a6.071,6.071,0,0,0,.058.889c.1.64.293.8.951.853l.351.036v.711h-5.032V131.8a.236.236,0,0,1,.076-.053c1.138-.147,1.271-.289,1.276-1.449v-6.61a6.756,6.756,0,0,0-.28-1.836,1.88,1.88,0,0,0-2.538-1.333,4.614,4.614,0,0,0-2.52,2.187.836.836,0,0,0-.062.413v6.987C101.115,131.535,101.141,131.535,102.484,131.851Z" transform="translate(-49.651 -112.626)" fill="#d5ae44"/>
      <path id="Path_13" data-name="Path 13" d="M0,107.108v-.773c.147,0,.28-.044.418-.044,2.449,0,4.889,0,7.356.027a11.318,11.318,0,0,1,2.316.3,4.668,4.668,0,0,1,3.783,5.058,4.824,4.824,0,0,1-4.636,4.921c-1.28.164-2.583.156-3.876.222H4.547a3.267,3.267,0,0,0-.044.444q0,2.827,0,5.654c0,1.2.32,1.476,1.542,1.516h.8v.853H.022v-.822c.258,0,.52-.022.778-.04.782-.053,1.08-.324,1.191-1.1a4.223,4.223,0,0,0,.027-.582V108.557c-.044-1.045-.324-1.333-1.378-1.431Zm4.556,8.6a14.135,14.135,0,0,0,4.24-.289,3.223,3.223,0,0,0,2.369-2.618,7.832,7.832,0,0,0,.111-1.96,3.289,3.289,0,0,0-2.974-3.3,18.771,18.771,0,0,0-2.667-.182c-1.031-.027-1.12.053-1.129,1.058-.027,2.294,0,4.587,0,6.881A3.578,3.578,0,0,0,4.556,115.709Z" transform="translate(0 -105.414)" fill="#d5ae44"/>
      <path id="Path_14" data-name="Path 14" d="M255.763,107.079v-.76a4,4,0,0,1,.445-.044c2.436,0,4.889-.044,7.307.036a11.166,11.166,0,0,1,3.111.538,4.268,4.268,0,0,1,2.965,4,7,7,0,0,1-.164,2.222,4.443,4.443,0,0,1-3.88,3.414,44.313,44.313,0,0,1-4.556.347h-.64a.67.67,0,0,0-.084.222c0,2.04,0,4.085.031,6.13.027.965.36,1.227,1.333,1.271h.982v.889h-6.805c-.16-.813-.147-.831.591-.862.987-.044,1.285-.324,1.373-1.311V108.879c-.027-1.44-.253-1.676-1.711-1.778A1.384,1.384,0,0,1,255.763,107.079Zm4.529,4.716h-.058v3.414c0,.356.089.516.476.5.818-.031,1.636,0,2.454-.04,2.062-.111,3.369-1.093,3.743-2.863a6.974,6.974,0,0,0,.129-1.849,3.261,3.261,0,0,0-2.756-3.378,24.558,24.558,0,0,0-3.392-.222.533.533,0,0,0-.591.6C260.292,109.257,260.292,110.515,260.292,111.8Z" transform="translate(-142.056 -105.399)" fill="#d5ae44"/>
      <path id="Path_15" data-name="Path 15" d="M155.561,121.263c-.147-.444,0-.618.444-.738a23.786,23.786,0,0,0,2.667-.92c.507-.2.636-.151.636.4v8.21a7.556,7.556,0,0,0,.218,1.778,2.263,2.263,0,0,0,2.809,1.725,4.361,4.361,0,0,0,2.72-1.911.889.889,0,0,0,.111-.5v-6.561a4.206,4.206,0,0,0-.036-.476c-.089-.751-.209-.889-.947-.96l-.418-.058c-.133-.444-.053-.613.445-.738a22.851,22.851,0,0,0,2.667-.92c.507-.2.631-.151.636.409v10.7c.031.889.267,1.129,1.133,1.222l.444.04.036.613a9.08,9.08,0,0,0-.925,0c-.8.08-1.587.173-2.378.289-.356.053-.529,0-.533-.413s-.067-.938-.1-1.4l-.187-.116a2.668,2.668,0,0,1-.32.48,5.218,5.218,0,0,1-5.334,1.285,2.978,2.978,0,0,1-2.111-2.32,9.635,9.635,0,0,1-.24-2.054c-.031-1.614,0-3.231,0-4.849v-.587C156.962,121.538,156.908,121.494,155.561,121.263Z" transform="translate(-86.384 -112.746)" fill="#d5ae44"/>
      <path id="Path_16" data-name="Path 16" d="M302.869,131.687l.164.627A2.818,2.818,0,0,1,299,131.278c-.151.12-.3.227-.444.342a5.578,5.578,0,0,1-4.969,1.071,2.992,2.992,0,0,1-2.525-2.44,3.414,3.414,0,0,1,1.36-3.627,10.481,10.481,0,0,1,3.418-1.569c.889-.236,1.756-.444,2.636-.64.316-.067.476-.182.444-.525a20.594,20.594,0,0,0-.2-2.111,1.854,1.854,0,0,0-1.627-1.48,2.82,2.82,0,0,0-3.418,1.84c-.2.445-.4.822-.938.889a.889.889,0,0,1-1.12-1.16,2.592,2.592,0,0,1,1.24-1.6,6.872,6.872,0,0,1,3.872-.956,7.806,7.806,0,0,1,1.333.1,3.485,3.485,0,0,1,3.165,3.716c.031,2.222,0,4.409,0,6.614a6.778,6.778,0,0,0,.036.889C301.428,131.754,301.744,131.963,302.869,131.687Zm-3.956-6.463a11.375,11.375,0,0,0-4.347,1.822,3.351,3.351,0,0,0-.831.956,2.387,2.387,0,0,0,1.5,3.6,3.819,3.819,0,0,0,3.556-1.262.529.529,0,0,0,.12-.333C298.917,128.447,298.913,126.887,298.913,125.224Z" transform="translate(-161.63 -112.641)" fill="#d5ae44"/>
      <path id="Path_17" data-name="Path 17" d="M71.43,125.861H62.763c0,1.778.124,3.427,1.289,4.8a3.764,3.764,0,0,0,5.334.236,15.556,15.556,0,0,0,1.307-1.431l.645.307a5.365,5.365,0,0,1-5.1,3.085,9.923,9.923,0,0,1-1.582-.187,4.7,4.7,0,0,1-3.556-2.778,9.157,9.157,0,0,1-.2-7.156,5.419,5.419,0,0,1,7.281-3c1.845.747,2.636,2.338,3.014,4.174C71.315,124.527,71.346,125.163,71.43,125.861Zm-2.485-.92a6.472,6.472,0,0,0-.636-3.294,2.587,2.587,0,0,0-4.192-.591,5.6,5.6,0,0,0-1.356,3.885Z" transform="translate(-33.479 -112.637)" fill="#d5ae44"/>
      <path id="Path_18" data-name="Path 18" d="M35.507,132.609V131.9a.889.889,0,0,1,.173-.058c1.28-.129,1.409-.262,1.413-1.529V122.79c0-1.285-.111-1.391-1.4-1.551a.986.986,0,0,1-.16-.044c-.138-.4-.031-.569.409-.693a26.184,26.184,0,0,0,2.7-.929c.547-.213.627-.2.653.418.027.489.062.978.1,1.578.413-.445.738-.809,1.093-1.151a3.143,3.143,0,0,1,2.951-.973,1.947,1.947,0,0,1,1.622,2.062.845.845,0,0,1-.645.889.889.889,0,0,1-1.049-.444c-.142-.244-.24-.511-.369-.765a.889.889,0,0,0-1.333-.493,5.434,5.434,0,0,0-2.222,2.222c-.08.116-.04.311-.044.471v6.983c.053,1.169.307,1.44,1.476,1.462.409,0,.565.156.48.533-.022.1-.169.249-.258.249Q38.345,132.613,35.507,132.609Z" transform="translate(-19.705 -112.686)" fill="#d5ae44"/>
      <path id="Path_19" data-name="Path 19" d="M326.661,131.833v.711h-5.832v-.685a2.025,2.025,0,0,0,.276-.053c1.093-.084,1.307-.293,1.311-1.418v-7.73c0-1.12-.187-1.3-1.311-1.436a1.668,1.668,0,0,1-.253-.04c-.164-.444,0-.587.418-.707.911-.262,1.814-.587,2.7-.933.516-.2.631-.178.645.387V121.4l.191.053.542-.6a3.932,3.932,0,0,1,2.609-1.5,2.123,2.123,0,0,1,2.427,2.076.889.889,0,0,1-.653.925.911.911,0,0,1-1.08-.48c-.133-.231-.222-.484-.338-.72a.889.889,0,0,0-1.267-.52,5.537,5.537,0,0,0-2.276,2.245c-.071.1-.035.28-.035.445v7.3c.08.889.378,1.151,1.249,1.2Z" transform="translate(-178.199 -112.662)" fill="#d5ae44"/>
      <path id="Path_20" data-name="Path 20" d="M139.487,121.3c-.164-.511.027-.631.476-.733a23.488,23.488,0,0,0,2.84-.862c.765-.289.787-.311.787.533v9.334a11.151,11.151,0,0,0,.053,1.333c.062.72.32.956,1.049,1l.645.04v.716h-5.872v-.72l.631-.031c.818-.044,1.138-.338,1.151-1.147v-8.125c0-1.067-.2-1.245-1.276-1.333Z" transform="translate(-77.453 -112.765)" fill="#d5ae44"/>
      <path id="Path_21" data-name="Path 21" d="M142.69,109.784c0-1.218.827-1.96,1.831-1.645a1.667,1.667,0,0,1,1.022,1.747,1.591,1.591,0,0,1-1.147,1.6C143.432,111.708,142.686,110.962,142.69,109.784Z" transform="translate(-79.265 -106.401)" fill="#d5ae44"/>
    </g>
    <g id="hotel_Изображение" data-name="hotel Изображение" transform="translate(60.234 73.649)">
      <path id="Path_22" data-name="Path 22" d="M163.381,165.79a2.069,2.069,0,0,1,1.778,1.48,4.064,4.064,0,0,1-.271,3.249,2.014,2.014,0,0,1-3.418-.151,4.023,4.023,0,0,1,0-3.5,2.042,2.042,0,0,1,1.613-1.08Zm-1.7,2.783a16.921,16.921,0,0,0,.338,1.662,1.213,1.213,0,0,0,1.209.889,1.236,1.236,0,0,0,1.169-.858,4.938,4.938,0,0,0,.04-3.24,1.249,1.249,0,0,0-1.249-.889,1.191,1.191,0,0,0-1.191.889,14.6,14.6,0,0,0-.316,1.547Z" transform="translate(-149.709 -165.79)" fill="#d5ae44"/>
      <path id="Path_23" data-name="Path 23" d="M135.572,166.26h1.649c-.484.418-.547.8-.4,2.356h1.987c.084,0,.218-.209.231-.329a10.663,10.663,0,0,0,0-1.067c0-.364.089-.782-.445-.947h1.578c-.533.16-.52.556-.516.978v3.414c0,.378.04.685.5.791h-1.538c.48-.133.418-.516.418-.867v-1.627h-2.285c.16.827-.271,1.711.329,2.5H135.51c.769-.227.631-.733.636-1.178v-3.04C136.172,166.589,136.172,166.589,135.572,166.26Z" transform="translate(-135.51 -166.051)" fill="#d5ae44"/>
      <path id="Path_24" data-name="Path 24" d="M209.813,169.007V170.9c0,.111.071.311.124.316.369.049.742.049,1.111.08.471.036.671-.227.751-.645a.755.755,0,0,1,.142-.231c.236.778,0,1.138-.716,1.138-.84,0-1.68,0-2.565-.067.52-.142.542-.5.533-.889v-3.356c0-.378.076-.8-.636-.756l.133-.147h3.014l.178,1.085c-.142-.067-.209-.076-.222-.107a1.165,1.165,0,0,0-1.569-.747.542.542,0,0,0-.271.373c-.036.373,0,.747,0,1.12v.516c.8.267.991.182,1.453-.693v1.92C210.827,168.856,210.827,168.856,209.813,169.007Z" transform="translate(-176.09 -166.096)" fill="#d5ae44"/>
      <path id="Path_25" data-name="Path 25" d="M189.171,167.443c-.071-1-.6-1.191-1.458-.929v3.9c0,.445,0,.867.6.965h-1.778c.645-.093.6-.556.591-1.009v-3.414c0-.2.107-.524-.267-.516s-.818-.191-1.022.32c-.076.187-.111.387-.182.636-.36-.756-.076-1.262.631-1.267.8,0,1.6.036,2.4,0,.476-.027.645.164.645.6v.6Z" transform="translate(-163.279 -165.976)" fill="#d5ae44"/>
      <path id="Path_26" data-name="Path 26" d="M234.656,170.4c-.049.307-.084.618-.156.916,0,.08-.133.2-.2.2-1,0-2,0-3.049-.058.582-.116.533-.525.533-.889v-3.245c0-.662,0-.662-.6-1.013h1.7c-.613.164-.5.653-.5,1.076v3.4c0,.36.12.529.489.507a3.556,3.556,0,0,1,.533,0c.525.044.911-.093.973-.7,0-.071.089-.138.133-.2Z" transform="translate(-188.655 -166.079)" fill="#d5ae44"/>
    </g>
  </g>
</svg>
