<svg xmlns="http://www.w3.org/2000/svg" width="67.581" height="67.58" viewBox="0 0 67.581 67.58">
  <g id="park" transform="translate(-1 -0.003)">
    <g id="Group_41" data-name="Group 41" transform="translate(1 0.003)">
      <g id="Group_40" data-name="Group 40" transform="translate(0 0)">
        <path id="Path_106" data-name="Path 106" d="M67.454,52.941a1.126,1.126,0,1,0,0-2.253H66.328a1.126,1.126,0,0,0-2.253,0H46.054a1.126,1.126,0,0,0-2.253,0H42.675a1.126,1.126,0,1,0,0,2.253H43.8V56.32H42.675a1.126,1.126,0,1,0,0,2.253H43.8V59.7H42.675a1.126,1.126,0,1,0,0,2.253H43.8V65.33H24.654V56.012a11.136,11.136,0,0,0,5.458,1.434,11.6,11.6,0,0,0,11.437-11.74,11.729,11.729,0,0,0-6.413-10.547,10.281,10.281,0,0,0,1.995-6.131,10.169,10.169,0,0,0-8.142-10.047A8.712,8.712,0,0,0,21.274,6.674c-.033,0-.066,0-.1.005a7.881,7.881,0,0,0-15.6.182,5.632,5.632,0,0,0,1.06,11.163H13.2a8.7,8.7,0,0,0,.361.951,10.174,10.174,0,0,0-8.14,10.052,10.282,10.282,0,0,0,1.995,6.131A11.73,11.73,0,0,0,1,45.706a11.6,11.6,0,0,0,11.437,11.74A11.135,11.135,0,0,0,17.9,56.012V65.33H2.127a1.126,1.126,0,1,0,0,2.253H67.454a1.126,1.126,0,0,0,0-2.253H66.328V61.951h1.126a1.126,1.126,0,0,0,0-2.253H66.328V58.573h1.126a1.126,1.126,0,0,0,0-2.253H66.328V52.941h1.126ZM12.784,15.382c0,.131.015.259.021.389H6.632a3.379,3.379,0,1,1,0-6.758A1.126,1.126,0,0,0,7.759,7.887a5.621,5.621,0,0,1,11.176-.869A8.689,8.689,0,0,0,12.784,15.382ZM22.4,65.331H20.148V54.356a11.621,11.621,0,0,0,1.126-1.209A11.606,11.606,0,0,0,22.4,54.356V65.331Zm.137-14.313L29.955,43.6a1.126,1.126,0,0,0-1.593-1.593L22.4,47.969V36.512l5.3-5.3a1.126,1.126,0,0,0-1.593-1.593L22.4,33.327V28.162a1.126,1.126,0,0,0-2.253,0v5.165l-3.709-3.709a1.126,1.126,0,0,0-1.593,1.593l5.3,5.3V47.969l-5.962-5.962A1.126,1.126,0,0,0,12.594,43.6l7.418,7.418a9.018,9.018,0,0,1-7.574,4.176,9.531,9.531,0,0,1-2.8-18.522,1.126,1.126,0,0,0,.437-1.872,8.026,8.026,0,0,1-2.4-5.771,7.844,7.844,0,0,1,7.622-7.976,1.163,1.163,0,0,0,1.129-.612,1.124,1.124,0,0,0-.1-1.175,6.528,6.528,0,0,1-1.289-3.884,6.357,6.357,0,0,1,6.238-6.455,6.357,6.357,0,0,1,6.238,6.455,6.528,6.528,0,0,1-1.289,3.884,1.119,1.119,0,0,0-.08,1.174,1.151,1.151,0,0,0,1.022.617,7.853,7.853,0,0,1,7.711,7.971,8.026,8.026,0,0,1-2.4,5.771,1.126,1.126,0,0,0,.437,1.872,9.531,9.531,0,0,1-2.8,18.522A9.018,9.018,0,0,1,22.538,51.018ZM64.075,65.331H46.054V61.952H64.075Zm0-5.632H46.054V58.573H64.075Zm0-3.379H46.054V52.941H64.075Z" transform="translate(-1 -0.003)" fill="#ffdc7c"/>
        <path id="Path_107" data-name="Path 107" d="M330.9,94.826h13.516a5.632,5.632,0,0,0,1.06-11.163,7.885,7.885,0,0,0-15.635,0,5.632,5.632,0,0,0,1.06,11.163Zm0-9.011a1.126,1.126,0,0,0,1.126-1.126,5.632,5.632,0,0,1,11.263,0,1.126,1.126,0,0,0,1.126,1.126,3.379,3.379,0,0,1,0,6.758H330.9a3.379,3.379,0,0,1,0-6.758Z" transform="translate(-282.47 -66.668)" fill="#ffdc7c"/>
      </g>
    </g>
  </g>
</svg>
