<svg xmlns="http://www.w3.org/2000/svg" width="73.991" height="62.438" viewBox="0 0 73.991 62.438">
  <g id="parking" transform="translate(0 -39.97)">
    <g id="Group_61" data-name="Group 61" transform="translate(57.355 45.981)">
      <g id="Group_60" data-name="Group 60" transform="translate(0 0)">
        <path id="Path_125" data-name="Path 125" d="M401.378,81.562h-3.612a.792.792,0,0,0-.881.719h0V93.96c0,.485.575.737,1.168.737.575,0,1.168-.251,1.168-.737V89.792h2.013c2.372,0,4.223-1.132,4.223-4.079v-.108C405.457,82.658,403.66,81.562,401.378,81.562Zm1.743,4.33c0,1.4-.719,2.066-1.887,2.066h-2.013V83.61h2.012c1.168,0,1.887.665,1.887,2.066Z" transform="translate(-396.886 -81.562)" fill="#ffdc7c"/>
      </g>
    </g>
    <g id="Group_69" data-name="Group 69" transform="translate(8.958 71.991)">
      <g id="Group_68" data-name="Group 68" transform="translate(0 0)">
        <path id="Path_129" data-name="Path 129" d="M104.9,269.264c-.456-.251-.906-.526-1.337-.817l-6.972-4.71a12.7,12.7,0,0,0-7.138-2.185h-12.8a12.671,12.671,0,0,0-9,3.718,17.081,17.081,0,0,1-4.189,3.064,2.742,2.742,0,0,0,1.264,5.176h4.363a1.054,1.054,0,0,0,0-2.108H64.73a.634.634,0,0,1-.293-1.2,19.188,19.188,0,0,0,4.705-3.442,10.575,10.575,0,0,1,7.512-3.1h2.865V271.4h-3.5a1.054,1.054,0,0,0,0,2.108h28.9a1.573,1.573,0,0,0,1.571-1.571A3.058,3.058,0,0,0,104.9,269.264ZM81.627,271.4V263.66h7.824a10.6,10.6,0,0,1,5.958,1.824l6.972,4.71c.484.327.989.636,1.5.918a.982.982,0,0,1,.327.291Z" transform="translate(-61.987 -261.552)" fill="#ffdc7c"/>
      </g>
    </g>
    <g id="Group_71" data-name="Group 71" transform="translate(26.9 85.552)">
      <g id="Group_70" data-name="Group 70">
        <path id="Path_130" data-name="Path 130" d="M190.452,355.388H187.2a1.054,1.054,0,1,0,0,2.108h3.256a1.054,1.054,0,1,0,0-2.108Z" transform="translate(-186.142 -355.388)" fill="#ffdc7c"/>
      </g>
    </g>
    <g id="Group_73" data-name="Group 73" transform="translate(0 39.97)">
      <g id="Group_72" data-name="Group 72">
        <path id="Path_131" data-name="Path 131" d="M73.081,84.667l-.333-.553a8.676,8.676,0,0,0-5.726-4.023L64.3,79.55V65.757h7.042a2.632,2.632,0,0,0,2.63-2.63V42.6a2.632,2.632,0,0,0-2.63-2.63H50.815a2.632,2.632,0,0,0-2.63,2.63v7.787a1.054,1.054,0,0,0,2.108,0V42.6a.522.522,0,0,1,.522-.522H71.343a.522.522,0,0,1,.522.522V63.128a.522.522,0,0,1-.522.522H50.815a.522.522,0,0,1-.522-.522V57.239a1.054,1.054,0,1,0-2.108,0v5.889a2.632,2.632,0,0,0,2.63,2.63H58.8v12.7l-1.4-.278a14.862,14.862,0,0,1-5.061-2.392l-6.972-4.71a15.926,15.926,0,0,0-8.947-2.739h-12.8A15.882,15.882,0,0,0,12.344,73,13.842,13.842,0,0,1,5.4,76.749l-1.513.317A4.9,4.9,0,0,0,0,81.846V92.054a3.087,3.087,0,0,0,1.832,2.819l4.2,1.866a6.989,6.989,0,0,0,13.591.574H54.628a6.988,6.988,0,0,0,13.455,0h2A3.913,3.913,0,0,0,73.991,93.4V87.937A6.34,6.34,0,0,0,73.081,84.667ZM60.909,65.757h1.284V79.131l-1.284-.255ZM16.348,98.87a4.884,4.884,0,0,1-7.9-5.482l.02-.044c.025-.053.051-.106.078-.159l.039-.074c.024-.046.05-.091.076-.136l.055-.092c.024-.04.049-.079.074-.118s.047-.07.071-.105.047-.069.072-.1.058-.077.087-.115.045-.06.069-.089.071-.085.107-.127c.021-.024.04-.048.062-.072q.081-.09.166-.176l.014-.015.033-.032c.048-.047.1-.094.146-.139l.039-.034c.049-.044.1-.087.15-.129l.015-.011a4.894,4.894,0,0,1,6.148.006l.006,0c.054.044.108.091.161.138l.029.025q.092.083.18.171c.064.064.125.129.184.2.026.029.051.059.076.089s.062.072.092.109.066.084.1.126l.053.071q.058.08.112.161l.018.028A4.893,4.893,0,0,1,16.348,98.87Zm48.461,0a4.885,4.885,0,0,1-7.542-6.129l.018-.027q.054-.082.113-.162l.053-.07c.032-.042.064-.085.1-.127s.06-.072.091-.108.051-.06.077-.09c.06-.066.121-.132.184-.2a4.885,4.885,0,0,1,6.908,0c.064.064.125.129.184.2.026.029.051.059.076.089s.062.072.091.109.066.084.1.126l.053.071c.039.053.076.107.112.161l.018.028A4.893,4.893,0,0,1,64.809,98.87ZM71.883,93.4h0a1.8,1.8,0,0,1-1.8,1.8H68.346a6.9,6.9,0,0,0-1.552-4.183L66.775,91c-.06-.073-.122-.145-.186-.216l-.048-.055c-.067-.074-.136-.146-.207-.218l-.035-.037a6.95,6.95,0,0,0-3.236-1.839,7.1,7.1,0,0,0-3.083-.075,6.944,6.944,0,0,0-3.57,1.914l-.034.036c-.071.072-.14.144-.208.218l-.046.053c-.064.072-.127.145-.187.218l-.018.023A6.906,6.906,0,0,0,54.363,95.2H19.886a6.906,6.906,0,0,0-1.557-4.19L18.315,91c-.064-.078-.13-.154-.2-.229l-.037-.042q-.118-.13-.243-.256a7,7,0,0,0-9.889,0c-.078.078-.153.158-.227.239l-.064.073q-.078.088-.153.178l-.066.081q-.077.1-.151.2l-.046.061q-.2.271-.368.558l-.009.016q-.083.141-.159.286l0,.008a6.949,6.949,0,0,0-.728,2.24l-3.285-1.46a.978.978,0,0,1-.58-.892V81.846a2.788,2.788,0,0,1,2.207-2.717l1.513-.317a15.946,15.946,0,0,0,8-4.321,13.787,13.787,0,0,1,9.793-4.046h12.8a13.826,13.826,0,0,1,7.767,2.378l6.972,4.71a16.809,16.809,0,0,0,5.83,2.713l9.62,1.913A6.563,6.563,0,0,1,70.943,85.2l.333.553a4.227,4.227,0,0,1,.607,2.182Z" transform="translate(0 -39.97)" fill="#ffdc7c"/>
      </g>
    </g>
    <g id="Group_75" data-name="Group 75" transform="translate(9.694 92.216)">
      <g id="Group_74" data-name="Group 74">
        <path id="Path_132" data-name="Path 132" d="M72.543,402.437a3.2,3.2,0,1,0,0,4.526A3.179,3.179,0,0,0,72.543,402.437Zm-1.491,3.035a1.092,1.092,0,1,1,0-1.544A1.085,1.085,0,0,1,71.052,405.472Z" transform="translate(-67.08 -401.5)" fill="#ffdc7c"/>
      </g>
    </g>
    <g id="Group_77" data-name="Group 77" transform="translate(58.156 92.216)">
      <g id="Group_76" data-name="Group 76">
        <path id="Path_133" data-name="Path 133" d="M407.892,402.437a3.2,3.2,0,1,0,.937,2.263A3.179,3.179,0,0,0,407.892,402.437Zm-1.491,3.035a1.092,1.092,0,1,1,.32-.772A1.085,1.085,0,0,1,406.4,405.472Z" transform="translate(-402.43 -401.5)" fill="#ffdc7c"/>
      </g>
    </g>
  </g>
</svg>
