<svg xmlns="http://www.w3.org/2000/svg" width="81.735" height="81.739" viewBox="0 0 81.735 81.739">
  <g id="sunset" transform="translate(-0.178 0.001)">
    <path id="Path_45" data-name="Path 45" d="M329.4,284.778a13.622,13.622,0,1,0,13.622-13.622A13.622,13.622,0,0,0,329.4,284.778Zm13.622-10.9a10.9,10.9,0,1,1-10.9,10.9A10.9,10.9,0,0,1,343.021,273.88Zm0,0" transform="translate(-282.904 -233.009)" fill="#ffdc7c"/>
    <path id="Path_46" data-name="Path 46" d="M370.9,561.637h15.569v2.724H370.9Zm0,0" transform="translate(-318.565 -482.623)" fill="#ffdc7c"/>
    <path id="Path_47" data-name="Path 47" d="M329.4,522.9h27.245v2.725H329.4Zm0,0" transform="translate(-282.904 -449.338)" fill="#ffdc7c"/>
    <path id="Path_48" data-name="Path 48" d="M116.379,522.9H119.1v2.725h-2.725Zm0,0" transform="translate(-99.853 -449.338)" fill="#ffdc7c"/>
    <path id="Path_49" data-name="Path 49" d="M58.285,542.27h2.724v2.725H58.285Zm0,0" transform="translate(-49.932 -465.98)" fill="#ffdc7c"/>
    <path id="Path_50" data-name="Path 50" d="M16.662,65.9A103.17,103.17,0,0,0,29.768,25.578L42.437,38.172a1.36,1.36,0,0,0,.953.4,1.286,1.286,0,0,0,.22-.018,1.36,1.36,0,0,0,1-.735,13.3,13.3,0,0,0-2.5-15.37L41,21.33h9.582a1.363,1.363,0,0,0,1.293-1.794,13.3,13.3,0,0,0-12.634-9.1H37.47l6.8-6.843a1.362,1.362,0,0,0-.357-2.18A13.3,13.3,0,0,0,28.538,3.905l-1.3,1.3a13.323,13.323,0,0,0-1.181,1.362,13.089,13.089,0,0,0-1.171-1.362l-1.3-1.3A13.3,13.3,0,0,0,8.216,1.411,1.362,1.362,0,0,0,7.86,3.59l6.811,6.843H12.882a13.3,13.3,0,0,0-12.634,9.1A1.363,1.363,0,0,0,1.541,21.33h9.572L10,22.445a13.3,13.3,0,0,0-2.5,15.37,1.362,1.362,0,0,0,1,.735,1.292,1.292,0,0,0,.221.018,1.36,1.36,0,0,0,.96-.4l11.8-11.728a73.833,73.833,0,0,1-14.242,36,50.828,50.828,0,0,0-5.56-1.133l-.851-.086L.554,63.938l.794.077c1.362.2,2.716.47,4.062.782-.273.342-.545.689-.827,1.026l2.089,1.748A76.693,76.693,0,0,0,24.494,23.447l1.568-1.558,1.174,1.167A99.6,99.6,0,0,1,9.961,71.415l2.231,1.561c1.071-1.529,2.093-3.115,3.083-4.732A48.316,48.316,0,0,1,31.758,81.158l2.107-1.726a50.882,50.882,0,0,0-9.046-8.591H81.912V68.116H20.783C19.448,67.31,18.069,66.579,16.662,65.9ZM42.89,34.778,28.5,20.468a10.507,10.507,0,0,1,10.4,2.6l1.3,1.3A10.576,10.576,0,0,1,42.89,34.778ZM48.5,18.606H37.224A13.285,13.285,0,0,0,28.786,17.6,10.564,10.564,0,0,1,37.4,13.157h1.839A10.577,10.577,0,0,1,48.5,18.606ZM29.159,7.132l1.3-1.3A10.584,10.584,0,0,1,40.873,3.138L32.8,11.261a13.286,13.286,0,0,0-6.431,5.047,10.311,10.311,0,0,1,2.8-9.176Zm-7.5-1.3,1.3,1.3A10.339,10.339,0,0,1,24.522,9.2a12.961,12.961,0,0,0-1.041,4.528,13.288,13.288,0,0,0-4.155-2.463L11.25,3.138A10.58,10.58,0,0,1,21.659,5.831Zm-8.777,7.326h1.839a10.567,10.567,0,0,1,8.62,4.44A13.291,13.291,0,0,0,14.9,18.606H3.62a10.578,10.578,0,0,1,9.262-5.449ZM9.232,34.778a10.577,10.577,0,0,1,2.693-10.407l1.3-1.3a10.412,10.412,0,0,1,7.386-3.04,10.774,10.774,0,0,1,3.019.433Zm0,0" transform="translate(0 0)" fill="#ffdc7c"/>
  </g>
</svg>
