<svg xmlns="http://www.w3.org/2000/svg" width="69.737" height="50.004" viewBox="0 0 69.737 50.004">
  <g id="swimming-pool" transform="translate(-17.541 -32.921)">
    <path id="Path_57" data-name="Path 57" d="M80.2,66.445c-1.371,1.209-2.361,2.081-4.544,2.081s-3.173-.872-4.545-2.081c-.3-.265-.617-.543-.957-.818V42.944a10.023,10.023,0,0,0-20.047,0h3.839a6.185,6.185,0,0,1,12.369,0v6.229H41.918V42.944a10.023,10.023,0,0,0-20.046,0h3.839a6.184,6.184,0,0,1,12.369,0V63.773A11.041,11.041,0,0,0,33.7,66.447c-1.37,1.207-2.36,2.079-4.541,2.079s-3.171-.872-4.543-2.079a9.781,9.781,0,0,0-7.079-3.039v3.839c2.18,0,3.171.872,4.542,2.081a9.767,9.767,0,0,0,14.158,0c1.37-1.209,2.36-2.081,4.541-2.081s3.171.872,4.543,2.081a9.77,9.77,0,0,0,14.16,0c1.371-1.207,2.361-2.081,4.544-2.081s3.173.873,4.544,2.081a9.771,9.771,0,0,0,14.161,0c1.372-1.207,2.363-2.081,4.545-2.081V63.408A9.789,9.789,0,0,0,80.2,66.445ZM66.312,63.663a9.906,9.906,0,0,0-2.284-.255,9.782,9.782,0,0,0-7.08,3.039c-1.372,1.207-2.363,2.079-4.544,2.079s-3.172-.872-4.544-2.081a10.047,10.047,0,0,0-5.942-2.975V53.011H66.312Z" fill="#ffdc7c"/>
    <path id="Path_58" data-name="Path 58" d="M75.653,102.2c-2.182,0-3.173-.872-4.545-2.081a9.768,9.768,0,0,0-14.16,0c-1.372,1.207-2.363,2.079-4.544,2.079s-3.172-.872-4.544-2.081a9.765,9.765,0,0,0-14.157,0c-1.37,1.207-2.36,2.079-4.541,2.079s-3.171-.872-4.543-2.079a9.781,9.781,0,0,0-7.079-3.039v3.839c2.18,0,3.171.872,4.542,2.081a9.767,9.767,0,0,0,14.158,0c1.37-1.209,2.36-2.081,4.541-2.081s3.171.872,4.543,2.081a9.77,9.77,0,0,0,14.16,0c1.371-1.207,2.361-2.081,4.544-2.081s3.173.873,4.544,2.081a9.771,9.771,0,0,0,14.161,0c1.372-1.207,2.363-2.081,4.545-2.081V97.079a9.79,9.79,0,0,0-7.081,3.038C78.826,101.325,77.835,102.2,75.653,102.2Z" transform="translate(0 -23.111)" fill="#ffdc7c"/>
  </g>
</svg>
