<svg id="tour-bus" xmlns="http://www.w3.org/2000/svg" width="66.448" height="65.376" viewBox="0 0 66.448 65.376">
  <path id="Path_118" data-name="Path 118" d="M108.287,392a4.287,4.287,0,1,0,4.287,4.287A4.291,4.291,0,0,0,108.287,392Zm0,6.43a2.143,2.143,0,1,1,2.143-2.143A2.146,2.146,0,0,1,108.287,398.43Zm0,0" transform="translate(-90.067 -339.484)" fill="#ffdc7c"/>
  <path id="Path_119" data-name="Path 119" d="M332.287,392a4.287,4.287,0,1,0,4.287,4.287A4.291,4.291,0,0,0,332.287,392Zm0,6.43a2.143,2.143,0,1,1,2.143-2.143A2.146,2.146,0,0,1,332.287,398.43Zm0,0" transform="translate(-284.058 -339.484)" fill="#ffdc7c"/>
  <path id="Path_120" data-name="Path 120" d="M64.3,52.515V26.794a5.3,5.3,0,0,0-1.1-3.215h.028a3.215,3.215,0,1,0,0-6.43h-3.6A9.642,9.642,0,1,0,44.366,6.817a3.173,3.173,0,0,0-1.5-.387H37.955a4.7,4.7,0,0,0-2.587.768A4.7,4.7,0,0,0,32.78,6.43H26.166a4.7,4.7,0,0,0-2.587.768,4.7,4.7,0,0,0-2.587-.768H15a3.219,3.219,0,0,0-3.215,3.215v7.5H9.646a3.215,3.215,0,0,0,0,6.43H10.83c-.042.055-.09.107-.13.165L3.1,34.729a5.346,5.346,0,0,0-.952,3.049V52.515A2.146,2.146,0,0,0,0,54.659v4.287a2.146,2.146,0,0,0,2.143,2.143h8.662a8.555,8.555,0,0,0,14.829,0H40.815a8.555,8.555,0,0,0,14.829,0H64.3a2.146,2.146,0,0,0,2.143-2.143V54.659A2.146,2.146,0,0,0,64.3,52.515Zm-8.662,0a8.555,8.555,0,0,0-14.829,0H25.634a8.624,8.624,0,0,0-1.762-2.143h9.606L44.2,45.013H62.161v7.5ZM53.587,2.143a7.5,7.5,0,1,1-7.5,7.5A7.511,7.511,0,0,1,53.587,2.143Zm-6.049,15H46.085V15.695A9.684,9.684,0,0,0,47.538,17.148ZM32.78,8.574a2.569,2.569,0,0,1,1.516.5v2.716h2.143V9.073a2.569,2.569,0,0,1,1.516-.5H42.87a1.073,1.073,0,0,1,1.072,1.072v7.5h-7.5V13.933H34.3v3.215H24.65V9.073a2.569,2.569,0,0,1,1.516-.5ZM13.933,9.646A1.073,1.073,0,0,1,15,8.574h5.987a2.569,2.569,0,0,1,1.516.5v8.075H13.933ZM8.574,20.363a1.073,1.073,0,0,1,1.072-1.072H63.233a1.072,1.072,0,1,1,0,2.143H9.646A1.073,1.073,0,0,1,8.574,20.363ZM4.858,35.948l7.6-10.985a3.215,3.215,0,0,1,2.644-1.385H58.946a3.219,3.219,0,0,1,3.215,3.215V42.87H43.689L32.971,48.229H4.287V37.778A3.206,3.206,0,0,1,4.858,35.948ZM4.287,50.372h8.28a8.647,8.647,0,0,0-1.762,2.143H4.287ZM2.143,58.946V54.659H9.928a8.286,8.286,0,0,0,0,4.287ZM18.22,63.233a6.43,6.43,0,1,1,6.43-6.43A6.437,6.437,0,0,1,18.22,63.233Zm8.292-4.287a8.286,8.286,0,0,0,0-4.287H39.938a8.271,8.271,0,0,0,0,4.287Zm21.717,4.287a6.43,6.43,0,1,1,6.43-6.43A6.437,6.437,0,0,1,48.229,63.233ZM64.3,58.946H56.52a8.286,8.286,0,0,0,0-4.287H64.3Zm0,0" fill="#ffdc7c"/>
  <path id="Path_121" data-name="Path 121" d="M86.507,192H70.929L64,202.392V207H86.507Zm-2.143,12.861H66.143v-1.819l5.932-8.9H84.363Zm0,0" transform="translate(-55.426 -166.278)" fill="#ffdc7c"/>
  <path id="Path_122" data-name="Path 122" d="M184,320h6.43v2.143H184Zm0,0" transform="translate(-159.35 -277.13)" fill="#ffdc7c"/>
  <path id="Path_123" data-name="Path 123" d="M274.794,194.143A2.146,2.146,0,0,0,272.65,192H248v15h26.794Zm-2.143,10.717H250.143V194.143H272.65Zm0,0" transform="translate(-214.776 -166.278)" fill="#ffdc7c"/>
  <path id="Path_124" data-name="Path 124" d="M365.359,42.717A5.359,5.359,0,1,0,360,37.359,5.365,5.365,0,0,0,365.359,42.717Zm0-8.574a3.215,3.215,0,1,1-3.215,3.215A3.219,3.219,0,0,1,365.359,34.143Zm0,0" transform="translate(-311.771 -27.713)" fill="#ffdc7c"/>
</svg>
