<svg id="tray" xmlns="http://www.w3.org/2000/svg" width="67.511" height="67.511" viewBox="0 0 67.511 67.511">
  <g id="Group_43" data-name="Group 43" transform="translate(11.252 41.631)">
    <g id="Group_42" data-name="Group 42">
      <path id="Path_108" data-name="Path 108" d="M134.256,318.188c-.065-.109-.134-.214-.2-.306a4.385,4.385,0,0,0-6.12-1.01l-12.58,8.982H102.212a1.125,1.125,0,1,1,0-2.25h7.314a3.943,3.943,0,0,0,3.938-3.938c0-.012,0-.116,0-.127a3.952,3.952,0,0,0-4.026-3.811H94.8a5.646,5.646,0,0,0-3.557,1.306l-5.5,4.58a1.128,1.128,0,0,0-.405.865v13.5a1.125,1.125,0,0,0,1.125,1.125h27.917a7.9,7.9,0,0,0,5.014-1.81l13.641-11.271A4.422,4.422,0,0,0,134.256,318.188Zm-2.594,4.053-13.706,11.32a5.646,5.646,0,0,1-3.582,1.294H87.584V323.006l5.1-4.244a3.385,3.385,0,0,1,2.126-.784h14.663a1.719,1.719,0,0,1,1.742,1.689,1.69,1.69,0,0,1-1.688,1.688h-7.314a3.376,3.376,0,1,0,0,6.751h13.5a1.14,1.14,0,0,0,.656-.209l12.874-9.194a2.135,2.135,0,0,1,2.987.5c.034.046.064.093.093.142A2.185,2.185,0,0,1,131.662,322.241Z" transform="translate(-85.334 -315.726)" fill="#ffdc7c"/>
    </g>
  </g>
  <g id="Group_45" data-name="Group 45" transform="translate(0 46.133)">
    <g id="Group_44" data-name="Group 44">
      <path id="Path_109" data-name="Path 109" d="M12.343,349.867H0v2.25H11.218V369H0v2.25H12.343a1.125,1.125,0,0,0,1.125-1.125V350.992A1.125,1.125,0,0,0,12.343,349.867Z" transform="translate(0 -349.867)" fill="#ffdc7c"/>
    </g>
  </g>
  <g id="Group_47" data-name="Group 47" transform="translate(2.25 56.259)">
    <g id="Group_46" data-name="Group 46">
      <path id="Path_110" data-name="Path 110" d="M20.443,426.667a3.376,3.376,0,1,0,3.376,3.376A3.38,3.38,0,0,0,20.443,426.667Zm0,4.5a1.125,1.125,0,1,1,1.125-1.125A1.126,1.126,0,0,1,20.443,431.168Z" transform="translate(-17.067 -426.667)" fill="#ffdc7c"/>
    </g>
  </g>
  <g id="Group_49" data-name="Group 49" transform="translate(0 34.881)">
    <g id="Group_48" data-name="Group 48">
      <path id="Path_111" data-name="Path 111" d="M66.386,264.533H1.125A1.125,1.125,0,0,0,0,265.658a7.886,7.886,0,0,0,7.876,7.876H59.635a7.886,7.886,0,0,0,7.876-7.876A1.124,1.124,0,0,0,66.386,264.533Zm-6.751,6.751H7.876a5.635,5.635,0,0,1-5.512-4.5H65.147A5.635,5.635,0,0,1,59.635,271.284Z" transform="translate(0 -264.533)" fill="#ffdc7c"/>
    </g>
  </g>
  <g id="Group_51" data-name="Group 51" transform="translate(4.501 5.626)">
    <g id="Group_50" data-name="Group 50">
      <path id="Path_112" data-name="Path 112" d="M63.388,42.667A29.289,29.289,0,0,0,34.133,71.922v1.125a1.125,1.125,0,0,0,1.125,1.125H91.517a1.124,1.124,0,0,0,1.125-1.125V71.922A29.288,29.288,0,0,0,63.388,42.667Zm-27,29.255a27,27,0,1,1,54.009,0Z" transform="translate(-34.133 -42.667)" fill="#ffdc7c"/>
    </g>
  </g>
  <g id="Group_53" data-name="Group 53" transform="translate(13.081 18.461)">
    <g id="Group_52" data-name="Group 52">
      <path id="Path_113" data-name="Path 113" d="M101.376,140.006a25.153,25.153,0,0,0-2.167,2.814l1.876,1.243a23,23,0,0,1,1.974-2.563Z" transform="translate(-99.209 -140.006)" fill="#ffdc7c"/>
    </g>
  </g>
  <g id="Group_55" data-name="Group 55" transform="translate(16.816 10.127)">
    <g id="Group_54" data-name="Group 54">
      <path id="Path_114" data-name="Path 114" d="M144.471,76.8a24.665,24.665,0,0,0-16.94,6.72l1.542,1.639a22.42,22.42,0,0,1,15.4-6.109Z" transform="translate(-127.531 -76.8)" fill="#ffdc7c"/>
    </g>
  </g>
  <g id="Group_57" data-name="Group 57" transform="translate(30.38)">
    <g id="Group_56" data-name="Group 56">
      <rect id="Rectangle_20" data-name="Rectangle 20" width="6.751" height="2.25" fill="#ffdc7c"/>
    </g>
  </g>
  <g id="Group_59" data-name="Group 59" transform="translate(32.63 1.125)">
    <g id="Group_58" data-name="Group 58">
      <rect id="Rectangle_21" data-name="Rectangle 21" width="2.25" height="5.626" fill="#ffdc7c"/>
    </g>
  </g>
</svg>
