<svg id="vk" data-name="waves Изображение" xmlns="http://www.w3.org/2000/svg" width="24.998" height="24.998" viewBox="0 0 24.998 24.998"><defs><style>.cls-1{fill:#4d76a1;}.cls-2{fill:#fff;fill-rule:evenodd;}</style></defs><title>icon-vk</title><g id="Слой_2" data-name="Слой 2"><g id="vk"><g id="Group_1" data-name="Group 1"><circle class="cls-1" cx="12.5" cy="12.5" r="12.5"/></g><path id="Path_28" data-name="Path 28" class="cls-2" d="M12,18h1a.87.87,0,0,0,.45-.2.73.73,0,0,0,.13-.43s0-1.32.59-1.51,1.38,1.27,2.2,1.84a1.59,1.59,0,0,0,1.09.33l2.2,0s1.14-.07.6-1a7.72,7.72,0,0,0-1.63-1.88c-1.38-1.28-1.19-1.07.46-3.28,1-1.34,1.41-2.16,1.29-2.51s-.87-.25-.87-.25l-2.46,0a.59.59,0,0,0-.32.06.78.78,0,0,0-.22.26,13.6,13.6,0,0,1-.91,1.93c-1.1,1.86-1.54,2-1.72,1.85-.42-.27-.31-1.09-.31-1.67,0-1.81.27-2.56-.54-2.76a4.4,4.4,0,0,0-1.15-.11,5.48,5.48,0,0,0-2.05.21c-.28.14-.5.44-.36.46a1.15,1.15,0,0,1,.73.37,2.37,2.37,0,0,1,.24,1.11s.15,2.13-.34,2.4c-.33.18-.79-.19-1.77-1.89A14.54,14.54,0,0,1,7.46,9.5a.76.76,0,0,0-.2-.27,1.14,1.14,0,0,0-.38-.16l-2.35,0a.81.81,0,0,0-.48.16c-.11.14,0,.42,0,.42A26.81,26.81,0,0,0,8,16.13,5.64,5.64,0,0,0,12,18Z"/></g></g></svg>