<svg id="waves_Изображение" data-name="waves Изображение" xmlns="http://www.w3.org/2000/svg" width="92.008" height="11.357" viewBox="0 0 92.008 11.357">
  <path id="Path_6" data-name="Path 6" d="M130.224,45.48a8.445,8.445,0,0,1-5.245,2.609,31.356,31.356,0,0,1-4.565.276c-3.058-.031-5.992-.529-8.259-2.858a8.507,8.507,0,0,1-4.138,2.342,21.638,21.638,0,0,1-8.765.236,8.965,8.965,0,0,1-4.609-2.058c-.2-.173-.382-.351-.569-.525-2.751,2.774-6.267,2.876-9.779,2.907v2.12a.582.582,0,0,0,.169.058,27.6,27.6,0,0,0,9.214-1.08,1.111,1.111,0,0,1,.662-.058,26.3,26.3,0,0,0,8.672,1.151,27.008,27.008,0,0,0,8.374-1,2.458,2.458,0,0,1,1.587,0,25.836,25.836,0,0,0,7.845.991,27.536,27.536,0,0,0,9.2-1.16.854.854,0,0,1,.516,0,23.923,23.923,0,0,0,7.556,1.133,29.075,29.075,0,0,0,8.725-.782,5.152,5.152,0,0,1,3.076,0,28.888,28.888,0,0,0,8.565.782,24.234,24.234,0,0,0,7.708-1.142.942.942,0,0,1,.564,0,27.3,27.3,0,0,0,9.1,1.133c.284,0,.445-.08.422-.391V48.733c0-.311-.142-.4-.444-.387h-1.6c-2.894-.142-5.654-.653-7.81-2.889a7.205,7.205,0,0,1-3.36,2.138,20.092,20.092,0,0,1-3.556.7,20.678,20.678,0,0,1-6.836-.378,8.41,8.41,0,0,1-4.352-2.445,8.934,8.934,0,0,1-5.178,2.614,23.518,23.518,0,0,1-6.321.191A9.85,9.85,0,0,1,130.224,45.48Zm45.925-1.036V42.221c-3.556-.053-7.063-.173-9.779-2.9-2.249,1.778-2.974,2.222-5.4,2.578a28.825,28.825,0,0,1-4.992.258c-2.849-.093-5.583-.649-7.7-2.854a2.492,2.492,0,0,0-.213.178,8.157,8.157,0,0,1-3.925,2.169,21.66,21.66,0,0,1-8.521.262,9.152,9.152,0,0,1-4.814-2.089c-.2-.173-.382-.356-.48-.445l-3.249,2.134c.938.493,1.845,1.058,2.814,1.471a19.758,19.758,0,0,0,6.916,1.333,31.2,31.2,0,0,0,9.428-.622,7.556,7.556,0,0,1,4.16,0,29.308,29.308,0,0,0,8.632.653,23.029,23.029,0,0,0,7.072-1.107.809.809,0,0,1,.511,0,19.206,19.206,0,0,0,4.889,1C173.038,44.337,174.585,44.373,176.15,44.444Zm-91.886-.062a27.392,27.392,0,0,0,8.548-.889,4.4,4.4,0,0,1,2.5,0,34.241,34.241,0,0,0,14.015.382A19.428,19.428,0,0,1,112,43.222a15.885,15.885,0,0,1,2.72.609,38.076,38.076,0,0,0,11.886.2c.8-.1,1.6-.32,2.382-.485-.92-.618-1.778-1.2-2.667-1.778a.636.636,0,0,0-.444-.093,21.7,21.7,0,0,1-7.205.373,9.81,9.81,0,0,1-6.485-2.729h-.124a8.485,8.485,0,0,1-4.445,2.423,21.411,21.411,0,0,1-6.094.4,14.464,14.464,0,0,1-4.525-.889A8.272,8.272,0,0,1,94.06,39.27c-2.756,2.783-6.272,2.88-9.81,2.938Z" transform="translate(-84.25 -39.27)" fill="#d5ae44"/>
  <path id="Path_7" data-name="Path 7" d="M130.241,53.234a9.821,9.821,0,0,0,6.592,2.8,23.519,23.519,0,0,0,6.321-.191,8.934,8.934,0,0,0,5.178-2.614,8.41,8.41,0,0,0,4.352,2.445,20.678,20.678,0,0,0,6.836.378,20.091,20.091,0,0,0,3.556-.7,7.205,7.205,0,0,0,3.312-2.116c2.156,2.222,4.916,2.747,7.81,2.889.533.027,1.067,0,1.6,0,.284,0,.445.076.445.387v1.436c0,.311-.138.391-.422.391a27.768,27.768,0,0,1-9.1-1.133.942.942,0,0,0-.564,0,24.234,24.234,0,0,1-7.708,1.142,28.875,28.875,0,0,1-8.565-.782,5.152,5.152,0,0,0-3.076,0,29.049,29.049,0,0,1-8.725.782,23.923,23.923,0,0,1-7.556-1.133.853.853,0,0,0-.516,0,27.309,27.309,0,0,1-9.2,1.16,25.392,25.392,0,0,1-7.845-.991,2.458,2.458,0,0,0-1.587,0,26.485,26.485,0,0,1-8.374,1,26.179,26.179,0,0,1-8.672-1.151,1.111,1.111,0,0,0-.662.058,27.585,27.585,0,0,1-9.214,1.08.582.582,0,0,1-.169-.058V56.164c3.525-.031,7.041-.133,9.779-2.907.187.173.373.351.569.525a8.966,8.966,0,0,0,4.641,2.058,21.638,21.638,0,0,0,8.779-.236,8.579,8.579,0,0,0,4.138-2.342c2.267,2.329,5.2,2.827,8.259,2.858a31.355,31.355,0,0,0,4.565-.276A8.445,8.445,0,0,0,130.241,53.234Z" transform="translate(-84.267 -47.025)" fill="#d5ae44"/>
  <path id="Path_8" data-name="Path 8" d="M229.656,44.461c-1.582-.071-3.111-.107-4.663-.222a19.206,19.206,0,0,1-4.889-1,.809.809,0,0,0-.511,0,23.029,23.029,0,0,1-7.072,1.129,29.308,29.308,0,0,1-8.632-.653,7.556,7.556,0,0,0-4.16,0,31.2,31.2,0,0,1-9.428.622A19.758,19.758,0,0,1,183.384,43c-.969-.413-1.876-.978-2.814-1.471l3.249-2.134c.1.089.284.271.48.445a9.152,9.152,0,0,0,4.818,2.089,21.66,21.66,0,0,0,8.534-.267,8.157,8.157,0,0,0,3.96-2.187,2.5,2.5,0,0,1,.213-.178c2.116,2.222,4.849,2.76,7.7,2.854a28.826,28.826,0,0,0,5.018-.258c2.423-.342,3.147-.782,5.4-2.578,2.694,2.729,6.187,2.849,9.779,2.9Z" transform="translate(-137.756 -39.287)" fill="#d5ae44"/>
  <path id="Path_9" data-name="Path 9" d="M84.28,44.382V42.208c3.556-.058,7.054-.156,9.81-2.938a8.272,8.272,0,0,0,2.934,1.978,14.464,14.464,0,0,0,4.525.889,21.411,21.411,0,0,0,6.094-.4,8.485,8.485,0,0,0,4.445-2.423h.124a9.841,9.841,0,0,0,6.485,2.729,21.7,21.7,0,0,0,7.241-.351.636.636,0,0,1,.444.093c.889.569,1.734,1.156,2.667,1.778-.787.164-1.578.382-2.383.484a38.075,38.075,0,0,1-11.886-.2,15.519,15.519,0,0,0-2.72-.609,18.229,18.229,0,0,0-2.667.653,34.234,34.234,0,0,1-14.015-.382,4.4,4.4,0,0,0-2.5,0A28.536,28.536,0,0,1,84.28,44.382Z" transform="translate(-84.267 -39.27)" fill="#d5ae44"/>
</svg>
