<svg xmlns="http://www.w3.org/2000/svg" width="101.553" height="61.606" viewBox="0 0 101.553 61.606">
  <g id="air-conditioner-7" transform="translate(0 -100.486)">
    <path id="Path_239" data-name="Path 239" d="M94.415,100.486H24.146a1.491,1.491,0,0,0,0,2.982H94.415a4.161,4.161,0,0,1,4.156,4.156v31.742a4.161,4.161,0,0,1-4.156,4.156h-3.57v-9.713a1.491,1.491,0,0,0-1.491-1.491H12.2a1.491,1.491,0,0,0-1.491,1.491v9.713H7.138a4.161,4.161,0,0,1-4.156-4.156V107.624a4.161,4.161,0,0,1,4.156-4.156H18.183a1.491,1.491,0,0,0,0-2.982H7.138A7.146,7.146,0,0,0,0,107.624v31.742A7.146,7.146,0,0,0,7.138,146.5H22.656a1.491,1.491,0,1,0,0-2.982H13.689V140.9H72.934a1.491,1.491,0,1,0,0-2.982H13.689V135.3H87.864v2.621H78.9a1.491,1.491,0,0,0,0,2.982h8.967v2.621H28.619a1.491,1.491,0,1,0,0,2.982h65.8a7.146,7.146,0,0,0,7.138-7.138V107.624A7.146,7.146,0,0,0,94.415,100.486Z" transform="translate(0 0)" fill="#ffdc7c"/>
    <path id="Path_240" data-name="Path 240" d="M425.76,149.449a1.491,1.491,0,0,0,0-2.982h-4.409a1.491,1.491,0,0,0,0,2.982Z" transform="translate(-336.405 -36.841)" fill="#ffdc7c"/>
    <path id="Path_241" data-name="Path 241" d="M273.39,149.449a1.491,1.491,0,0,0,0-2.982H245.174a1.491,1.491,0,1,0,0,2.982Z" transform="translate(-195.246 -36.841)" fill="#ffdc7c"/>
    <path id="Path_242" data-name="Path 242" d="M115.681,352.064a1.491,1.491,0,0,0-1.491,1.491,9.845,9.845,0,0,1-4.183,7.4,1.491,1.491,0,1,0,1.727,2.43,12.822,12.822,0,0,0,5.438-9.833A1.491,1.491,0,0,0,115.681,352.064Z" transform="translate(-87.638 -201.572)" fill="#ffdc7c"/>
    <path id="Path_243" data-name="Path 243" d="M188.774,352.064a1.491,1.491,0,0,0-1.491,1.491v8.618a1.491,1.491,0,1,0,2.982,0v-8.618A1.491,1.491,0,0,0,188.774,352.064Z" transform="translate(-150.057 -201.572)" fill="#ffdc7c"/>
    <path id="Path_244" data-name="Path 244" d="M251.555,352.064a1.491,1.491,0,0,0-1.491,1.491v8.618a1.491,1.491,0,1,0,2.982,0v-8.618A1.491,1.491,0,0,0,251.555,352.064Z" transform="translate(-200.359 -201.572)" fill="#ffdc7c"/>
    <path id="Path_245" data-name="Path 245" d="M369.493,360.958a9.811,9.811,0,0,1-4.183-7.41,1.491,1.491,0,0,0-2.982.007,12.822,12.822,0,0,0,5.438,9.833,1.491,1.491,0,1,0,1.727-2.43Z" transform="translate(-290.309 -201.572)" fill="#ffdc7c"/>
    <path id="Path_246" data-name="Path 246" d="M310.117,352.064a1.491,1.491,0,0,0-1.491,1.491v8.618a1.491,1.491,0,1,0,2.982,0v-8.618A1.491,1.491,0,0,0,310.117,352.064Z" transform="translate(-247.281 -201.572)" fill="#ffdc7c"/>
  </g>
</svg>
