<svg xmlns="http://www.w3.org/2000/svg" width="69.984" height="83.624" viewBox="0 0 69.984 83.624"><path d="M68.762,68.7a1.223,1.223,0,0,0,1.224-1.223V47.614a13.626,13.626,0,0,0-10.28-13.191V22.382a3.636,3.636,0,0,0-3.631-3.632H47.385a3.636,3.636,0,0,0-3.632,3.632V34.424A13.6,13.6,0,0,0,37.9,37.582a13.7,13.7,0,0,0-1.479-2.089,1.223,1.223,0,0,0-1.855,1.595,11.275,11.275,0,0,1,1.591,2.427,13.526,13.526,0,0,0-2.684,8.1V77.547a6.036,6.036,0,0,0,1.054,3.415,4.035,4.035,0,0,1-1.3.215H6.515a4.073,4.073,0,0,1-4.069-4.069V44.46A11.356,11.356,0,0,1,8.914,34.241a6.1,6.1,0,0,0,3.472-5.486v-3.2H27.361v3.2a6.108,6.108,0,0,0,2.9,5.174,1.223,1.223,0,0,0,1.279-2.086,3.646,3.646,0,0,1-1.728-3.089v-3.22a3.312,3.312,0,0,0,3-3.293V18.511A3.312,3.312,0,0,0,29.5,15.2H24.243v-6.3h5.771a2.794,2.794,0,0,1,2.088.948,3.592,3.592,0,0,0,2.522,1.217c.063,0,.126.005.188.005a3.584,3.584,0,0,0,2.438-.955,3.727,3.727,0,0,0,.289-5.15L35.868,3.043A8.79,8.79,0,0,0,29.233,0H12.056a4.429,4.429,0,0,0-4.4,4.453,4.429,4.429,0,0,0,4.4,4.453H15.5v6.3H10.247a3.312,3.312,0,0,0-3.308,3.309v3.732a3.313,3.313,0,0,0,3,3.293v3.219A3.64,3.64,0,0,1,7.867,32.03,13.813,13.813,0,0,0,0,44.46v32.65a6.522,6.522,0,0,0,6.515,6.515H33.233a6.472,6.472,0,0,0,3.218-.853,6.038,6.038,0,0,0,3.1.853H63.908a6.083,6.083,0,0,0,6.077-6.076V73.236a1.223,1.223,0,0,0-2.447,0v4.312a3.634,3.634,0,0,1-3.63,3.63H39.551a3.634,3.634,0,0,1-3.63-3.63V47.614A11.169,11.169,0,0,1,47.077,36.458h9.306A11.168,11.168,0,0,1,67.538,47.614V67.473A1.224,1.224,0,0,0,68.762,68.7ZM12.056,6.459a1.98,1.98,0,0,1-1.948-2.006,1.98,1.98,0,0,1,1.948-2.007H29.233a6.341,6.341,0,0,1,4.786,2.2L35.69,6.574a1.263,1.263,0,0,1-.1,1.745,1.157,1.157,0,0,1-1.662-.088,5.242,5.242,0,0,0-3.919-1.772ZM21.8,8.905v6.3H17.951v-6.3ZM9.386,22.243V18.511a.862.862,0,0,1,.861-.862H29.5a.863.863,0,0,1,.862.862v3.732a.863.863,0,0,1-.862.861H10.247A.863.863,0,0,1,9.386,22.243Zm47.873,11.8c-.29-.019-.581-.031-.876-.031H47.077c-.295,0-.586.013-.876.031V22.382A1.187,1.187,0,0,1,47.385,21.2h8.688a1.187,1.187,0,0,1,1.185,1.185V34.043Zm0,0" fill="#ffdc7c"/><path d="M279.583,261.618a9.009,9.009,0,1,0-9.009,9.009A9.019,9.019,0,0,0,279.583,261.618Zm-15.571,0a6.562,6.562,0,1,1,6.562,6.562A6.57,6.57,0,0,1,264.013,261.618Zm0,0" transform="translate(-218.845 -211.351)" fill="#ffdc7c"/><path d="M257.218,382.938v-1.773a2.739,2.739,0,0,0-2.736-2.736h-23.4a2.739,2.739,0,0,0-2.736,2.736v1.773a2.739,2.739,0,0,0,2.736,2.736h23.4A2.739,2.739,0,0,0,257.218,382.938Zm-26.42,0v-1.773a.289.289,0,0,1,.289-.289h23.4a.289.289,0,0,1,.289.289v1.773a.289.289,0,0,1-.289.289h-23.4A.289.289,0,0,1,230.8,382.938Zm0,0" transform="translate(-191.055 -316.622)" fill="#ffdc7c"/><path d="M250.068,431.285a2.739,2.739,0,0,0-2.736,2.736v1.774a2.739,2.739,0,0,0,2.736,2.735h17.2A2.738,2.738,0,0,0,270,435.795v-1.774a2.739,2.739,0,0,0-2.735-2.736Zm17.484,2.736v1.774a.289.289,0,0,1-.288.288h-17.2a.289.289,0,0,1-.289-.288v-1.774a.289.289,0,0,1,.289-.289h17.2A.289.289,0,0,1,267.551,434.021Zm0,0" transform="translate(-206.936 -360.844)" fill="#ffdc7c"/></svg>