<svg xmlns="http://www.w3.org/2000/svg" width="83.623" height="78.049" viewBox="0 0 83.623 78.049"><g transform="translate(0 0)"><path d="M78.443,57.879H77.049V28.611A12.491,12.491,0,0,0,64.505,16.067c-6.169,0-10.606,4.574-11.1,11.276a6.888,6.888,0,0,0-5.623,6.842,1.317,1.317,0,0,0,1.394,1.394h11.15a1.317,1.317,0,0,0,1.394-1.394A6.888,6.888,0,0,0,56.2,27.364c.416-4.429,3.076-8.509,8.3-8.509a9.7,9.7,0,0,1,9.756,9.756V57.879H32.315A6.889,6.889,0,0,0,25.481,52.3a7.276,7.276,0,0,0-5.575-2.788,6.891,6.891,0,0,0-6.132,3.763A8.279,8.279,0,0,0,10.15,52.3a6.889,6.889,0,0,0-6.834,5.575H3.181a4.181,4.181,0,1,0,0,8.362H4.856L8.617,81.154a9.833,9.833,0,0,0,9.477,7.387h1.115L17.4,92.165a1.23,1.23,0,0,0,.557,1.812.838.838,0,0,0,.557.139,1.464,1.464,0,0,0,1.254-.7l2.439-4.878H60.882l2.369,4.739a1.34,1.34,0,0,0,1.254.836c.279,0,.418,0,.557-.279a1.468,1.468,0,0,0,.557-1.812l-1.746-3.492a9.868,9.868,0,0,0,9.133-7.24l3.8-15.052h1.64a4.181,4.181,0,1,0,0-8.362ZM58.791,32.792H50.847A4.238,4.238,0,0,1,54.889,30,4.06,4.06,0,0,1,58.791,32.792ZM10.15,55.091a4.683,4.683,0,0,1,3.345,1.533,1.262,1.262,0,0,0,1.394.418,1.35,1.35,0,0,0,.976-1.115A4.316,4.316,0,0,1,20.045,52.3a3.9,3.9,0,0,1,3.624,2.091,1.4,1.4,0,0,0,1.533.7h.418a4.06,4.06,0,0,1,3.9,2.788H6.247A4.06,4.06,0,0,1,10.15,55.091ZM70.5,80.457a7.152,7.152,0,0,1-6.829,5.3H18.233a7.151,7.151,0,0,1-6.829-5.3L7.78,66.241H73.843Zm7.944-17H3.181a1.394,1.394,0,1,1,0-2.787H78.443a1.394,1.394,0,1,1,0,2.787Z" transform="translate(1 -16.067)" fill="#ffdc7c"/><path d="M299.061,156.084a1.317,1.317,0,0,0,1.394-1.394v-.7a1.394,1.394,0,1,0-2.787,0v.7A1.317,1.317,0,0,0,299.061,156.084Z" transform="translate(-248.886 -130.3)" fill="#ffdc7c"/><path d="M299.061,191.055a1.4,1.4,0,0,0,1.394-1.394v-1.533a1.394,1.394,0,0,0-2.787,0v1.533A1.317,1.317,0,0,0,299.061,191.055Z" transform="translate(-248.886 -158.859)" fill="#ffdc7c"/><path d="M299.061,228.618a1.317,1.317,0,0,0,1.394-1.394v-.7a1.394,1.394,0,1,0-2.787,0v.7A1.317,1.317,0,0,0,299.061,228.618Z" transform="translate(-248.886 -190.988)" fill="#ffdc7c"/><path d="M333.194,156.084a1.317,1.317,0,0,0,1.394-1.394v-.7a1.394,1.394,0,1,0-2.787,0v.7A1.317,1.317,0,0,0,333.194,156.084Z" transform="translate(-277.445 -130.3)" fill="#ffdc7c"/><path d="M331.8,189.66a1.317,1.317,0,0,0,1.394,1.394,1.4,1.4,0,0,0,1.394-1.394v-1.533a1.394,1.394,0,1,0-2.787,0Z" transform="translate(-277.445 -158.859)" fill="#ffdc7c"/><path d="M331.8,227.224a1.394,1.394,0,0,0,2.787,0v-.7a1.394,1.394,0,0,0-2.787,0Z" transform="translate(-277.445 -190.987)" fill="#ffdc7c"/><path d="M367.328,156.084a1.317,1.317,0,0,0,1.394-1.394v-.7a1.394,1.394,0,1,0-2.787,0v.7A1.317,1.317,0,0,0,367.328,156.084Z" transform="translate(-306.004 -130.3)" fill="#ffdc7c"/><path d="M365.933,189.66a1.317,1.317,0,0,0,1.394,1.394,1.4,1.4,0,0,0,1.394-1.394v-1.533a1.394,1.394,0,1,0-2.787,0v1.533Z" transform="translate(-306.003 -158.859)" fill="#ffdc7c"/><path d="M365.933,227.224a1.394,1.394,0,0,0,2.787,0v-.7a1.394,1.394,0,1,0-2.787,0Z" transform="translate(-306.003 -190.987)" fill="#ffdc7c"/></g></svg>