<svg xmlns="http://www.w3.org/2000/svg" width="78.396" height="67.944" viewBox="0 0 78.396 67.944"><g transform="translate(0 0)"><path d="M77.091,71.2H75.784v-3.92a6.533,6.533,0,0,0-3.92-5.979V41.146a1.307,1.307,0,0,0-.784-1.2,5.172,5.172,0,0,0,.784-2.723,5.226,5.226,0,0,0-10.453,0,5.173,5.173,0,0,0,.726,2.613H16.26a5.173,5.173,0,0,0,.726-2.613,5.226,5.226,0,0,0-10.453,0,5.172,5.172,0,0,0,.784,2.723,1.307,1.307,0,0,0-.784,1.2V61.3a6.533,6.533,0,0,0-3.92,5.979V71.2H1.307A1.307,1.307,0,0,0,0,72.505V90.8A1.307,1.307,0,0,0,1.307,92.1H2.613v6.533A1.307,1.307,0,0,0,3.92,99.944H9.146a1.307,1.307,0,0,0,1.307-1.307V92.1H67.944v6.533a1.307,1.307,0,0,0,1.307,1.307h5.226a1.307,1.307,0,0,0,1.307-1.307V92.1h1.307A1.307,1.307,0,0,0,78.4,90.8V72.505A1.307,1.307,0,0,0,77.091,71.2ZM66.638,34.613a2.613,2.613,0,1,1-2.613,2.613A2.613,2.613,0,0,1,66.638,34.613Zm-54.878,0a2.613,2.613,0,1,1-2.613,2.613A2.613,2.613,0,0,1,11.76,34.613Zm-2.613,7.84h60.1V60.746H63.99a6.465,6.465,0,0,0,1.341-3.92V54.213A6.541,6.541,0,0,0,58.8,47.679H48.345a6.541,6.541,0,0,0-6.533,6.533v2.613a6.465,6.465,0,0,0,1.341,3.92H35.245a6.465,6.465,0,0,0,1.341-3.92V54.213a6.541,6.541,0,0,0-6.533-6.533H19.6a6.541,6.541,0,0,0-6.533,6.533v2.613a6.465,6.465,0,0,0,1.341,3.92H9.146Zm53.571,11.76v2.613a3.92,3.92,0,0,1-3.92,3.92H48.345a3.92,3.92,0,0,1-3.92-3.92V54.213a3.92,3.92,0,0,1,3.92-3.92H58.8A3.92,3.92,0,0,1,62.718,54.213Zm-28.746,0v2.613a3.92,3.92,0,0,1-3.92,3.92H19.6a3.92,3.92,0,0,1-3.92-3.92V54.213a3.92,3.92,0,0,1,3.92-3.92H30.052A3.92,3.92,0,0,1,33.972,54.213ZM5.226,67.279a3.92,3.92,0,0,1,3.92-3.92h60.1a3.92,3.92,0,0,1,3.92,3.92V71.2H5.226ZM7.84,97.331H5.226V92.1H7.84Zm65.331,0H70.558V92.1h2.613Zm2.613-7.84H2.613V73.812H75.784Z" transform="translate(0 -32)" fill="#ffdc7c"/></g><g transform="translate(5.226 52.265)"><path d="M38.533,352H33.307a1.307,1.307,0,0,0,0,2.613h5.226a1.307,1.307,0,0,0,0-2.613Z" transform="translate(-32 -352)" fill="#ffdc7c"/></g><g transform="translate(15.679 52.265)"><path d="M152.185,352H97.307a1.307,1.307,0,0,0,0,2.613h54.878a1.307,1.307,0,0,0,0-2.613Z" transform="translate(-96 -352)" fill="#ffdc7c"/></g></svg>