<svg xmlns="http://www.w3.org/2000/svg" width="83.623" height="75.131" viewBox="0 0 83.623 75.131"><path d="M123,91.633a1.633,1.633,0,0,0,1.633,1.633h9.8a1.633,1.633,0,0,0,0-3.267h-9.8A1.633,1.633,0,0,0,123,91.633Zm0,0" transform="translate(-102.911 -75.301)" fill="#ffdc7c"/><path d="M124.633,253.267h9.8a1.633,1.633,0,0,0,0-3.267h-9.8a1.633,1.633,0,0,0,0,3.267Zm0,0" transform="translate(-102.911 -209.168)" fill="#ffdc7c"/><path d="M156.267,1.633A1.633,1.633,0,1,1,154.633,0,1.633,1.633,0,0,1,156.267,1.633Zm0,0" transform="translate(-128.011)" fill="#ffdc7c"/><path d="M78.724,0H33.972a1.633,1.633,0,0,0,0,3.267H49.978v24.5H3.267V4.9A1.635,1.635,0,0,1,4.9,3.267H19.273a1.633,1.633,0,0,0,0-3.267H4.9A4.905,4.905,0,0,0,0,4.9v49a4.905,4.905,0,0,0,4.9,4.9h5.39V73.5a1.633,1.633,0,0,0,1.633,1.633h7.35a1.634,1.634,0,0,0,1.615-1.391L23.129,58.8H60.984L63.226,73.74a1.634,1.634,0,0,0,1.615,1.391h7.35A1.633,1.633,0,0,0,73.824,73.5V58.8h4.9a4.905,4.905,0,0,0,4.9-4.9V4.9A4.905,4.905,0,0,0,78.724,0ZM3.267,53.9V31.032H49.978v24.5H4.9A1.635,1.635,0,0,1,3.267,53.9Zm14.6,17.966h-4.31V58.8h6.27Zm52.692,0h-4.31L64.288,58.8h6.27Zm9.8-17.966a1.635,1.635,0,0,1-1.633,1.633H53.245V3.267H78.724A1.635,1.635,0,0,1,80.357,4.9Zm0,0" fill="#ffdc7c"/></svg>