<svg xmlns="http://www.w3.org/2000/svg" width="83.625" height="63.698" viewBox="0 0 83.625 63.698"><g transform="translate(0 0)"><path d="M122.675,178.788H119.3v-30h11.617a2.019,2.019,0,0,0,2.018-2.016v-3.364h7.495a2.019,2.019,0,0,0,2.018-2.016v-4.747a2.019,2.019,0,0,0-2.018-2.016H89.381a2.019,2.019,0,0,0-2.018,2.016v4.747a2.019,2.019,0,0,0,2.018,2.016h7.495v3.364a2.019,2.019,0,0,0,2.018,2.016H110.51v30h-3.373a5.508,5.508,0,0,0-5.506,5.5,2.019,2.019,0,0,0,2.018,2.016h13.476a1.225,1.225,0,1,0,0-2.45H104.113a3.058,3.058,0,0,1,3.025-2.614h15.537a3.058,3.058,0,0,1,3.025,2.614h-3.817a1.225,1.225,0,1,0,0,2.45h4.281a2.019,2.019,0,0,0,2.018-2.016A5.509,5.509,0,0,0,122.675,178.788Zm-5.823,0H112.96v-30h3.892Zm-5.117-32.449H99.326v-2.93h3.318a1.225,1.225,0,1,0,0-2.45H89.813v-3.88H140v3.88H107.4a1.225,1.225,0,0,0,0,2.45h23.086v2.93H111.735Z" transform="translate(-73.094 -122.604)" fill="#ffdc7c"/><path d="M23.421,92.963H8.792v-25.2A6.776,6.776,0,0,0,2.018,61,2.019,2.019,0,0,0,0,63.016V98.144a3.6,3.6,0,0,0,1.585,2.98v3.033a2.019,2.019,0,0,0,1.585,1.968v17.031a1.225,1.225,0,1,0,2.45,0v-9.072H20.61v9.072a1.225,1.225,0,1,0,2.45,0V106.125a2.019,2.019,0,0,0,1.585-1.968v-2.629a3.6,3.6,0,0,0,2.378-3.384V96.562A3.6,3.6,0,0,0,23.421,92.963Zm-2.81,18.672H5.621v-5.462H20.61Zm1.585-7.912H4.035v-1.981H22.2v1.981Zm2.378-5.579a1.152,1.152,0,0,1-1.153,1.149H3.6A1.152,1.152,0,0,1,2.45,98.144V63.471a4.323,4.323,0,0,1,3.892,4.292V94.188a1.225,1.225,0,0,0,1.225,1.225H23.421a1.152,1.152,0,0,1,1.153,1.149Z" transform="translate(0 -61)" fill="#ffdc7c"/><path d="M371.546,61a6.776,6.776,0,0,0-6.774,6.763v25.2H350.143a3.6,3.6,0,0,0-3.6,3.6v1.582a3.6,3.6,0,0,0,2.378,3.384v2.629a2.019,2.019,0,0,0,1.585,1.968v17.031a1.225,1.225,0,0,0,2.45,0v-9.072h14.99v9.072a1.225,1.225,0,0,0,2.45,0V106.125a2.019,2.019,0,0,0,1.585-1.968v-3.033a3.6,3.6,0,0,0,1.585-2.98V63.016A2.019,2.019,0,0,0,371.546,61Zm-3.6,50.635h-14.99v-5.462h14.99Zm1.585-7.912H351.368v-1.981h18.161Zm1.585-5.579a1.152,1.152,0,0,1-1.153,1.149H350.143a1.152,1.152,0,0,1-1.153-1.149V96.562a1.152,1.152,0,0,1,1.153-1.149H366a1.225,1.225,0,0,0,1.225-1.225V67.763a4.324,4.324,0,0,1,3.892-4.292Z" transform="translate(-289.94 -61)" fill="#ffdc7c"/></g></svg>