<svg xmlns="http://www.w3.org/2000/svg" width="53.857" height="70.698" viewBox="0 0 53.857 70.698"><path d="M30.954,56.2l16.209-9.726q1.446-.517,2.868-1.11a6.216,6.216,0,0,0-.319-11.6V25.131h4.142V20.988H49.712V0H45.569V4.419H8.287V0H4.145V20.988H0v4.142H4.145v8.637a6.217,6.217,0,0,0-.319,11.6q1.422.593,2.868,1.11L22.9,56.2,5.643,66.555H0V70.7h16.57V66.555H13.694l13.234-7.941,13.235,7.941H37.284V70.7h16.57V66.555h-5.64ZM45.569,33.772c-.51.182-1.745.758-4.142,1.519V25.131h4.142Zm-29-.356H37.284v2.99a48.2,48.2,0,0,1-20.712,0ZM8.287,8.561H45.569V20.988H33.142v4.142h4.142v4.142H16.572V25.131h4.142V20.988H8.287Zm4.142,16.57V35.292c-2.356-.749-3.7-1.362-4.142-1.52V25.131Zm-8.124,13.7a2.06,2.06,0,0,1,2.708-1.112,51.832,51.832,0,0,0,19.914,3.954,51.863,51.863,0,0,0,19.919-3.955,2.071,2.071,0,0,1,1.591,3.823,55.592,55.592,0,0,1-21.509,4.272A55.6,55.6,0,0,1,5.419,41.54,2.067,2.067,0,0,1,4.306,38.831ZM19.87,49.549a61.285,61.285,0,0,0,7.058.407,61.287,61.287,0,0,0,7.059-.407l-7.059,4.235Zm0,0" fill="#ffdc7c"/></svg>