<svg xmlns="http://www.w3.org/2000/svg" width="83.623" height="83.624" viewBox="0 0 83.623 83.624"><path d="M63.066,76.132A13.066,13.066,0,1,0,50,63.066,13.081,13.081,0,0,0,63.066,76.132Zm0-22.866a9.8,9.8,0,1,1-9.8,9.8A9.81,9.81,0,0,1,63.066,53.267Zm0,0" transform="translate(-41.834 -41.834)" fill="#ffdc7c"/><path d="M91.633,143.267h9.8a1.633,1.633,0,0,0,0-3.267h-9.8a1.633,1.633,0,0,0,0,3.267Zm0,0" transform="translate(-75.301 -117.134)" fill="#ffdc7c"/><path d="M91.633,103.267h9.8a1.633,1.633,0,0,0,0-3.267h-9.8a1.633,1.633,0,0,0,0,3.267Zm0,0" transform="translate(-75.301 -83.667)" fill="#ffdc7c"/><path d="M3.267,121.633A1.633,1.633,0,1,1,1.633,120,1.633,1.633,0,0,1,3.267,121.633Zm0,0" transform="translate(0 -100.401)" fill="#ffdc7c"/><path d="M82.72,5.072a1.631,1.631,0,0,0-1.71.155c-.1.073-9.892,7.375-16.449,7.844-3.876.276-10.822-2.6-18.172-5.64C37.563,3.778,28.438,0,21.233,0A21.235,21.235,0,0,0,1.488,13.409a1.633,1.633,0,0,0,3.036,1.2A17.88,17.88,0,0,1,21.233,3.267c6.555,0,15.774,3.816,23.906,7.183,8.052,3.333,15.006,6.212,19.655,5.88,5.3-.378,11.95-4.287,15.563-6.67V32.806c-3.613-2.383-10.268-6.291-15.563-6.669-4.822-.344-11.83,2.57-19.945,5.945C38.193,34.849,28.166,39.2,21.233,39.2A17.956,17.956,0,0,1,4.525,27.852a1.633,1.633,0,1,0-3.036,1.2A21.237,21.237,0,0,0,13.066,40.837V59.125A13.081,13.081,0,0,0,0,72.191a11.432,11.432,0,0,0,22.747,1.633H24.5a4.905,4.905,0,0,0,4.9-4.9V62.391H55.085a6.545,6.545,0,0,0,6.326,4.9h8.166a1.633,1.633,0,0,0,1.633-1.633V62.391h3.267a1.633,1.633,0,0,0,0-3.267H71.211V55.858a1.633,1.633,0,0,0-1.633-1.633H61.411a6.545,6.545,0,0,0-6.326,4.9H29.4V47.365h4.97a4.833,4.833,0,0,0,4.829-4.8c0-.011,0-4.661,0-4.661C41.517,37,43.843,36.037,46.1,35.1c7.41-3.082,14.409-5.993,18.458-5.7,6.546.468,16.35,7.77,16.448,7.844a1.633,1.633,0,0,0,2.614-1.306V6.533A1.633,1.633,0,0,0,82.72,5.072ZM61.411,57.491h6.533v6.533H61.411a3.267,3.267,0,1,1,0-6.533ZM11.433,80.357a8.176,8.176,0,0,1-8.166-8.166,9.81,9.81,0,0,1,9.8-9.8v6.533a4.9,4.9,0,0,0,4.9,4.9h1.469A8.181,8.181,0,0,1,11.433,80.357Zm14.7-11.433A1.635,1.635,0,0,1,24.5,70.558H17.966a1.635,1.635,0,0,1-1.633-1.633V41.9a21.243,21.243,0,0,0,4.9.569,26.954,26.954,0,0,0,4.9-.494ZM34.369,44.1H29.4V41.232c1.953-.515,4.085-1.194,6.533-2.084v3.367A1.569,1.569,0,0,1,34.369,44.1Zm0,0" fill="#ffdc7c"/></svg>