<svg xmlns="http://www.w3.org/2000/svg" width="79.799" height="79.8" viewBox="0 0 79.799 79.8"><path d="M78.47,77.14H38.57a13.315,13.315,0,0,1-13.3-13.3V31.852A18.63,18.63,0,0,0,42.56,13.3a1.33,1.33,0,0,0-2.66,0A15.971,15.971,0,0,1,25.27,29.192v-2.66A13.318,13.318,0,0,0,37.24,13.3a1.33,1.33,0,0,0-2.66,0,10.65,10.65,0,0,1-9.31,10.548V13.166a6.65,6.65,0,1,0-2.66,0V23.848A10.65,10.65,0,0,1,13.3,13.3a1.33,1.33,0,0,0-2.66,0A13.318,13.318,0,0,0,22.61,26.532v2.66A15.971,15.971,0,0,1,7.98,13.3a1.33,1.33,0,0,0-2.66,0A18.63,18.63,0,0,0,22.61,31.852V63.84a13.315,13.315,0,0,1-13.3,13.3H1.33a1.33,1.33,0,1,0,0,2.66H78.47a1.33,1.33,0,0,0,0-2.66ZM19.95,6.65a3.99,3.99,0,1,1,3.99,3.99A3.995,3.995,0,0,1,19.95,6.65Zm2.66,65.993v4.5h-4.5A16.085,16.085,0,0,0,22.61,72.643Zm2.66,4.5v-4.5a16.085,16.085,0,0,0,4.5,4.5Z" fill="#ffdc7c"/></svg>