<svg xmlns="http://www.w3.org/2000/svg" width="78.725" height="83.624" viewBox="0 0 78.725 83.624"><g transform="translate(0)"><path d="M83.644,0H31.4A10.091,10.091,0,0,0,21.319,10.079v1.942a1.225,1.225,0,0,0,2.45,0V10.079A7.638,7.638,0,0,1,31.4,2.45H83.644a7.638,7.638,0,0,1,7.629,7.629V73.545a7.638,7.638,0,0,1-7.629,7.629H31.4a7.638,7.638,0,0,1-7.629-7.629V17.494a1.225,1.225,0,0,0-2.45,0V29.766h-.162A6.166,6.166,0,0,0,15,35.925V47.7a6.165,6.165,0,0,0,6.159,6.158h.162V73.545A10.091,10.091,0,0,0,31.4,83.624H83.644A10.091,10.091,0,0,0,93.723,73.545V10.079A10.091,10.091,0,0,0,83.644,0ZM21.32,51.407h-.162A3.713,3.713,0,0,1,17.449,47.7V35.925a3.713,3.713,0,0,1,3.709-3.709h.162Z" transform="translate(-14.999)" fill="#ffdc7c"/></g><g transform="translate(13.95 7.63)"><path d="M151.671,46.717H106.3a5.893,5.893,0,0,0-5.886,5.886v56.592a5.893,5.893,0,0,0,5.886,5.886h45.372a5.893,5.893,0,0,0,5.886-5.886V52.6A5.893,5.893,0,0,0,151.671,46.717ZM137.361,57.192A5.927,5.927,0,1,1,147.01,61.8h-7.44A5.921,5.921,0,0,1,137.361,57.192Zm3.527-8.025a8.412,8.412,0,0,0-4.752,3.668,8.413,8.413,0,0,0-4.752-3.668Zm-5.977,8.025A5.877,5.877,0,0,1,132.7,61.8h-7.437a5.926,5.926,0,1,1,9.645-4.612Zm-8.326-8.025a8.412,8.412,0,0,0-4.752,3.668,8.413,8.413,0,0,0-4.752-3.668Zm-5.977,8.025A5.941,5.941,0,0,1,118.4,61.8h-7.44a5.926,5.926,0,1,1,9.645-4.612ZM106.3,49.167h5.983a8.371,8.371,0,0,0-4.59,12.637h-4.829V52.6h0A3.44,3.44,0,0,1,106.3,49.167Zm23.542,63.464H111.1V92.5a2.744,2.744,0,0,1,2.741-2.741H116.5a2.744,2.744,0,0,1,2.741,2.741v16.1a1.225,1.225,0,1,0,2.45,0V92.5a2.744,2.744,0,0,1,2.741-2.741H127.1a2.744,2.744,0,0,1,2.741,2.741v20.134Zm17.033-2.363a2.366,2.366,0,0,1-2.363,2.363h-9.856a2.366,2.366,0,0,1-2.363-2.363v-13.9a10.558,10.558,0,0,1,1.312-5.09l2.059-3.729c1.864-3.184,1.617-7.615,1.617-7.615h4.608s-.152,4.842,1.617,7.615l2.059,3.729a10.558,10.558,0,0,1,1.312,5.09ZM135.609,76.187a1.3,1.3,0,0,1,1.3-1.3h5.347a1.3,1.3,0,0,1,0,2.6h-5.347A1.3,1.3,0,0,1,135.609,76.187Zm19.5,33.008a3.44,3.44,0,0,1-3.436,3.436H148.7a4.781,4.781,0,0,0,.623-2.363v-13.9a13.016,13.016,0,0,0-1.617-6.274l-2.059-3.729a10.559,10.559,0,0,1-1.312-5.09V79.3a3.749,3.749,0,0,0-2.08-6.867h-5.347a3.748,3.748,0,0,0-2.08,6.867v1.973a10.559,10.559,0,0,1-1.312,5.09l-1.938,3.51a5.192,5.192,0,0,0-4.479-2.572h-2.666a5.181,5.181,0,0,0-3.966,1.847,5.181,5.181,0,0,0-3.966-1.847h-2.666a5.2,5.2,0,0,0-5.191,5.191v20.134H106.3a3.44,3.44,0,0,1-3.436-3.436V69.976h48.3a1.225,1.225,0,1,0,0-2.45h-48.3V64.253h52.244Zm0-47.391h-4.831a8.368,8.368,0,0,0-4.588-12.637h5.983a3.44,3.44,0,0,1,3.436,3.436v9.2Z" transform="translate(-100.413 -46.717)" fill="#ffdc7c"/></g><g transform="translate(26.269 16.88)"><path d="M181.137,103.349h-4.079a1.225,1.225,0,0,0,0,2.45h4.079a1.225,1.225,0,0,0,0-2.45Z" transform="translate(-175.833 -103.349)" fill="#ffdc7c"/></g><g transform="translate(40.572 16.88)"><path d="M268.711,103.349h-4.079a1.225,1.225,0,1,0,0,2.45h4.079a1.225,1.225,0,0,0,0-2.45Z" transform="translate(-263.407 -103.349)" fill="#ffdc7c"/></g><g transform="translate(54.875 16.88)"><path d="M356.285,103.349h-4.079a1.225,1.225,0,1,0,0,2.45h4.079a1.225,1.225,0,1,0,0-2.45Z" transform="translate(-350.981 -103.349)" fill="#ffdc7c"/></g></svg>