<svg xmlns="http://www.w3.org/2000/svg" width="83.623" height="83.624" viewBox="0 0 83.623 83.624"><path d="M213.163,221.525a8.362,8.362,0,1,0-8.362-8.362A8.371,8.371,0,0,0,213.163,221.525Zm0-13.937a5.575,5.575,0,1,1-5.575,5.575A5.581,5.581,0,0,1,213.163,207.588Zm0,0" transform="translate(-171.351 -171.351)" fill="#ffdc7c"/><path d="M460.8,110.934h2.787v2.787H460.8Zm0,0" transform="translate(-385.539 -92.815)" fill="#ffdc7c"/><path d="M460.8,145.066h2.787v2.787H460.8Zm0,0" transform="translate(-385.539 -121.373)" fill="#ffdc7c"/><path d="M460.8,179.2h2.787v2.787H460.8Zm0,0" transform="translate(-385.539 -149.931)" fill="#ffdc7c"/><path d="M460.8,213.332h2.787v2.787H460.8Zm0,0" transform="translate(-385.539 -178.489)" fill="#ffdc7c"/><path d="M460.8,247.465h2.787v2.787H460.8Zm0,0" transform="translate(-385.539 -207.047)" fill="#ffdc7c"/><path d="M460.8,281.6h2.787v2.787H460.8Zm0,0" transform="translate(-385.539 -235.608)" fill="#ffdc7c"/><path d="M460.8,315.734h2.787v2.787H460.8Zm0,0" transform="translate(-385.539 -264.166)" fill="#ffdc7c"/><path d="M460.8,349.867h2.787v2.787H460.8Zm0,0" transform="translate(-385.539 -292.724)" fill="#ffdc7c"/><path d="M460.8,384h2.787v2.787H460.8Zm0,0" transform="translate(-385.539 -321.282)" fill="#ffdc7c"/><path d="M76.655,12.544h-22.3V9.756A9.767,9.767,0,0,0,44.6,0H39.024a9.767,9.767,0,0,0-9.756,9.756v2.787H6.969A6.977,6.977,0,0,0,0,19.513v44.6a6.97,6.97,0,0,0,5.708,6.841l1.27,11.432a1.394,1.394,0,0,0,1.385,1.24h5.575a1.393,1.393,0,0,0,1.385-1.24l1.256-11.3H67.045l1.256,11.3a1.393,1.393,0,0,0,1.385,1.24h5.575a1.394,1.394,0,0,0,1.385-1.24l1.27-11.432a6.97,6.97,0,0,0,5.708-6.841v-44.6A6.977,6.977,0,0,0,76.655,12.544Zm-44.6,6.969V9.756a6.977,6.977,0,0,1,6.969-6.969H44.6a6.977,6.977,0,0,1,6.969,6.969v2.787H48.781V9.756A4.186,4.186,0,0,0,44.6,5.575H39.024a4.186,4.186,0,0,0-4.181,4.181V25.088c-.131.054-.256.122-.387.179q-.322.142-.636.3c-.3.145-.59.3-.878.461-.2.112-.4.224-.6.343-.1.059-.2.108-.292.168ZM45.993,9.756v2.787H37.63V9.756a1.4,1.4,0,0,1,1.394-1.394H44.6A1.4,1.4,0,0,1,45.993,9.756ZM37.63,20.906h8.363v3.275c-.111-.027-.226-.035-.337-.059q-.7-.152-1.4-.248c-.182-.025-.362-.051-.545-.07a18.133,18.133,0,0,0-1.895-.11c-.124,0-.244.019-.368.022-.484.01-.966.036-1.447.084-.241.024-.479.057-.718.091-.419.058-.832.132-1.243.219-.134.029-.272.04-.405.071ZM30.041,32.012l1.916,1.916,1.971-1.971-1.919-1.919a15.233,15.233,0,0,1,8.409-3.487v2.717h2.787V26.552c.4.036.805.085,1.2.152a14.818,14.818,0,0,1,2.519.661q.71.248,1.386.561a15,15,0,0,1,3.3,2.112L49.7,31.957l1.971,1.971,1.915-1.915a15.345,15.345,0,0,1,3.487,8.406H54.356v2.787h2.717a15.251,15.251,0,0,1-3.487,8.409L51.666,49.7,49.7,51.666l1.919,1.919a15.256,15.256,0,0,1-8.409,3.487V54.355H40.418v2.717a15.258,15.258,0,0,1-8.409-3.487l1.919-1.919L31.957,49.7l-1.919,1.919a15.255,15.255,0,0,1-3.486-8.409h2.717V40.418H26.555A15.349,15.349,0,0,1,30.041,32.012Zm18.739-6.9V20.906h2.787v5.629c-.076-.048-.16-.084-.236-.131-.371-.228-.753-.436-1.139-.637-.184-.1-.364-.2-.552-.29C49.36,25.343,49.069,25.23,48.781,25.111ZM15.175,54.356a1.606,1.606,0,0,1,1.376.757c0,.008.011.015.016.024a1.247,1.247,0,0,1,.094.3.978.978,0,0,1,0,.628,1.285,1.285,0,0,1-.038.185,1.4,1.4,0,0,1-.326.493,1.334,1.334,0,0,1-.967.4H9.912a1.6,1.6,0,0,1-1.376-.758c0-.008-.011-.015-.016-.023a1.238,1.238,0,0,1-.094-.3,1.388,1.388,0,0,1-.05-.247,1.351,1.351,0,0,1,.05-.381,1.366,1.366,0,0,1,.037-.186,1.393,1.393,0,0,1,.327-.493,1.332,1.332,0,0,1,.967-.4ZM9.912,29.268a1.607,1.607,0,0,1-1.376-.757c0-.008-.011-.015-.015-.023a1.189,1.189,0,0,1-.094-.3,1.324,1.324,0,0,1-.05-.247,4.292,4.292,0,0,1,.087-.567,1.408,1.408,0,0,1,.327-.493,1.336,1.336,0,0,1,.967-.4h5.419a1.6,1.6,0,0,1,1.376.757c0,.008.011.015.016.024a1.229,1.229,0,0,1,.094.3.977.977,0,0,1,0,.628,1.293,1.293,0,0,1-.038.186,1.4,1.4,0,0,1-.326.493,1.336,1.336,0,0,1-.967.4ZM13.937,59.93h1.394a4.218,4.218,0,0,0,3.5-1.9c.043-.065.072-.137.111-.2a4.052,4.052,0,0,0,.285-.569c.036-.092.057-.188.087-.283a4.176,4.176,0,0,0,.136-.549c.019-.117.026-.235.035-.353s.032-.214.032-.325c0-.065-.017-.126-.02-.19s.01-.115,0-.174c-.008-.087-.034-.168-.047-.253-.02-.13-.041-.257-.072-.383s-.065-.225-.1-.336a4.2,4.2,0,0,0-.2-.483c-.019-.037-.039-.071-.058-.107a4.169,4.169,0,0,0-3.69-2.256H13.937V32.056h1.394a4.212,4.212,0,0,0,3.5-1.9c.043-.065.072-.137.111-.2a4.088,4.088,0,0,0,.285-.569c.036-.093.057-.189.087-.283a4.192,4.192,0,0,0,.136-.548c.019-.117.026-.235.035-.354s.032-.214.032-.325c0-.065-.017-.126-.02-.191s.01-.115,0-.174c-.008-.087-.034-.168-.047-.253-.02-.13-.041-.257-.072-.382s-.065-.225-.1-.336a4.207,4.207,0,0,0-.2-.484c-.019-.036-.039-.071-.058-.107a4.169,4.169,0,0,0-3.69-2.256H13.937V22.3a1.4,1.4,0,0,1,1.394-1.394H29.268v7.855a18.119,18.119,0,1,0,25.087,0V20.906H68.293A1.4,1.4,0,0,1,69.686,22.3V61.324a1.4,1.4,0,0,1-1.393,1.393H15.331a1.4,1.4,0,0,1-1.394-1.393ZM12.69,80.836H9.61L8.526,71.08h5.248Zm61.324,0h-3.08L69.85,71.08H75.1Zm6.822-16.725a4.186,4.186,0,0,1-4.181,4.181H6.969a4.186,4.186,0,0,1-4.181-4.181v-44.6a4.186,4.186,0,0,1,4.181-4.181h22.3v2.787H15.331A4.186,4.186,0,0,0,11.15,22.3v1.393H9.756a4.176,4.176,0,0,0-1.394.253V22.3a2.79,2.79,0,0,1,2.787-2.787V16.724A5.581,5.581,0,0,0,5.575,22.3v5.575c0,.065.017.126.019.19s-.009.115,0,.174c.007.087.034.168.047.253.019.13.041.257.071.383s.066.225.1.336a4.221,4.221,0,0,0,.195.482c.019.037.039.073.059.109a4.29,4.29,0,0,0,.6.861H5.575V33.45H8.362V31.8a4.074,4.074,0,0,0,1.394.253H11.15V51.568H9.756a4.217,4.217,0,0,0-3.5,1.9c-.043.065-.072.138-.111.205a4.027,4.027,0,0,0-.285.567c-.036.093-.057.189-.087.285a4.051,4.051,0,0,0-.136.547c-.019.117-.026.235-.035.355s-.032.214-.032.325c0,.065.017.126.02.19s-.01.115,0,.174c.008.087.034.168.047.253.019.13.041.257.071.382s.066.226.105.337a4.1,4.1,0,0,0,.194.482c.019.037.04.072.059.109A4.168,4.168,0,0,0,9.756,59.93H11.15v1.394a4.186,4.186,0,0,0,4.181,4.181H68.293a4.186,4.186,0,0,0,4.181-4.181V22.3a4.186,4.186,0,0,0-4.181-4.181H37.63V15.331H76.655a4.186,4.186,0,0,1,4.181,4.181Zm0,0" fill="#ffdc7c"/><path d="M207.044,184.425a9.746,9.746,0,0,1,6.453-2.438V179.2a12.531,12.531,0,0,0-8.3,3.136Zm0,0" transform="translate(-171.685 -149.931)" fill="#ffdc7c"/><path d="M183.291,218.989l-2.413-1.4a12.539,12.539,0,0,0-1.679,6.273h2.787A9.752,9.752,0,0,1,183.291,218.989Zm0,0" transform="translate(-149.931 -182.055)" fill="#ffdc7c"/></svg>