<svg xmlns="http://www.w3.org/2000/svg" width="74.576" height="74.48" viewBox="0 0 74.576 74.48"><path d="M16.785,3.512A21.981,21.981,0,0,0,0,11.291L2,12.98a19.307,19.307,0,0,1,29.513,0L33.5,11.291A21.872,21.872,0,0,0,16.785,3.512Zm0,0" transform="translate(0 -2.987)" fill="#ffdc7c"/><path d="M33.679,51.1A16.709,16.709,0,1,0,.858,56.474L11.018,94.663A12.784,12.784,0,0,0,23.385,104.2a13.04,13.04,0,0,0,2.109-.173A12.787,12.787,0,0,0,36.228,90.536Zm-2.6.237.516,8L5.461,63.618,3.5,56.27Zm.686,10.623.168,2.613L6.811,68.693l-.674-2.537ZM5.17,44.523a14.124,14.124,0,0,1,9.558-6.253A14.072,14.072,0,0,1,30.662,48.758L3.012,53.7A14.11,14.11,0,0,1,5.17,44.523Zm19.9,56.935A10.192,10.192,0,0,1,13.542,94L7.487,71.23,32.1,67.2l1.518,23.505A10.183,10.183,0,0,1,25.072,101.458Zm0,0" transform="translate(-0.247 -29.722)" fill="#ffdc7c"/><path d="M297.176,438.473a18.176,18.176,0,0,0,2.93.239V436.1a15.588,15.588,0,0,1-2.5-.2Zm0,0" transform="translate(-248.639 -364.749)" fill="#ffdc7c"/><path d="M331.113,297.29l.441,2.574A18.1,18.1,0,0,0,345.943,286.7l4.2-15.779-2.526-.672-4.2,15.779A15.5,15.5,0,0,1,331.113,297.29Zm0,0" transform="translate(-277.033 -226.162)" fill="#ffdc7c"/><path d="M97.7,162.305l2.572-.457.457,2.572-2.572.457Zm0,0" transform="translate(-81.742 -135.462)" fill="#ffdc7c"/><path d="M269.71,7.933a16.709,16.709,0,0,0-30.706,8l-2.548,39.435A12.787,12.787,0,0,0,247.19,68.862a12.975,12.975,0,0,0,2.109.173A12.785,12.785,0,0,0,261.666,59.5l10.163-38.191A16.736,16.736,0,0,0,269.71,7.933Zm-22.8-1.954a14.075,14.075,0,0,1,22.769,12.555l-27.651-4.946A14.111,14.111,0,0,1,246.907,5.98Zm-5.982,20.812,25.625,4.194-.676,2.539-25.118-4.112Zm.17-2.613.523-8,27.57,4.931-1.96,7.348ZM259.146,58.83a10.222,10.222,0,0,1-20.077-3.286l1.518-23.5,24.615,4.03Zm0,0" transform="translate(-197.812 -0.297)" fill="#ffdc7c"/><path d="M340.676,129.245l.457-2.573,2.573.457-.457,2.573Zm0,0" transform="translate(-285.034 -106.031)" fill="#ffdc7c"/></svg>