<svg xmlns="http://www.w3.org/2000/svg" width="88.029" height="61.62" viewBox="0 0 88.029 61.62"><path d="M88.029,10.242a1.469,1.469,0,0,0-.1-.5c-.018-.041-.037-.082-.059-.12a1.7,1.7,0,0,0-.082-.17L81.92.653A1.465,1.465,0,0,0,80.694,0H7.336A1.468,1.468,0,0,0,6.115.653L.246,9.455a1.7,1.7,0,0,0-.082.17c-.021.039-.041.08-.059.12a1.452,1.452,0,0,0-.105.5v8.831A1.467,1.467,0,0,0,1.467,20.54H2.934V60.153A1.467,1.467,0,0,0,4.4,61.62h8.8a1.467,1.467,0,0,0,1.467-1.467V26.409H73.358V60.153a1.467,1.467,0,0,0,1.467,1.467h8.8a1.467,1.467,0,0,0,1.467-1.467V20.54h1.467a1.467,1.467,0,0,0,1.467-1.467V10.242ZM8.121,2.934H79.908L83.821,8.8H4.208Zm74.04,55.752H76.292V24.942a1.467,1.467,0,0,0-1.467-1.467H13.2a1.467,1.467,0,0,0-1.467,1.467V58.686H5.869V20.54H82.161Zm2.934-41.08H2.934V11.737H85.095Zm0,0" transform="translate(0 0)" fill="#ffdc7c"/></svg>