<svg xmlns="http://www.w3.org/2000/svg" width="78.396" height="78.397" viewBox="0 0 78.396 78.397"><path d="M77.091,52.265H2.613V49.652H77.091a1.307,1.307,0,0,0,0-2.613H66.638V45.732a3.92,3.92,0,0,0-3.92-3.92H58.8V39.2H71.864a1.307,1.307,0,0,0,1.307-1.307V24.826a1.307,1.307,0,1,0-2.613,0v11.76H7.84V2.613H70.558V19.6a1.307,1.307,0,1,0,2.613,0V1.307A1.307,1.307,0,0,0,71.864,0H6.533A1.307,1.307,0,0,0,5.226,1.307V37.892A1.307,1.307,0,0,0,6.533,39.2H19.6v2.613h-3.92a3.92,3.92,0,0,0-3.92,3.92v1.307H1.307A1.307,1.307,0,0,0,0,48.345v5.226a1.307,1.307,0,0,0,1.307,1.307h3.92V77.091A1.307,1.307,0,0,0,6.533,78.4H11.76a1.307,1.307,0,0,0,1.307-1.307v-3.92H65.331v3.92A1.307,1.307,0,0,0,66.638,78.4h5.226a1.307,1.307,0,0,0,1.307-1.307V54.878h3.92a1.307,1.307,0,0,0,0-2.613ZM56.185,39.2v2.613H53.571V39.2ZM27.439,41.812V39.2H50.958v2.613ZM22.213,39.2h2.613v2.613H22.213Zm-7.84,6.533a1.307,1.307,0,0,1,1.307-1.307H62.718a1.307,1.307,0,0,1,1.307,1.307v1.307H14.373Zm-3.92,30.052H7.84V73.171h2.613Zm60.1,0H67.944V73.171h2.613Zm0-5.226H7.84V54.878H70.558Zm0,0" fill="#ffdc7c"/><path d="M65.307,46.373A1.307,1.307,0,0,0,64,47.679v11.76a1.307,1.307,0,0,0,1.307,1.307h54.878a1.307,1.307,0,0,0,1.307-1.307V33.307A1.307,1.307,0,0,0,120.185,32H65.307A1.307,1.307,0,0,0,64,33.307v9.146a1.307,1.307,0,0,0,2.613,0v-7.84h34.743L114.031,47.3a1.312,1.312,0,1,0,1.855-1.855L105.041,34.613h13.837V58.132h-12.53L85.834,37.605a1.312,1.312,0,0,0-1.855,1.855l18.684,18.672H66.613V47.679A1.307,1.307,0,0,0,65.307,46.373Zm0,0" transform="translate(-53.547 -26.774)" fill="#ffdc7c"/><path d="M81.307,362.453h50.958a1.307,1.307,0,0,0,0-2.613H82.613v-5.226h49.652a1.307,1.307,0,0,0,0-2.613H81.307A1.307,1.307,0,0,0,80,353.307v7.84A1.307,1.307,0,0,0,81.307,362.453Zm0,0" transform="translate(-66.934 -294.509)" fill="#ffdc7c"/></svg>