<svg xmlns="http://www.w3.org/2000/svg" width="83.623" height="83.624" viewBox="0 0 83.623 83.624"><path d="M82.23,8.362H66.788A9.763,9.763,0,0,0,57.143,0H23.693a9.763,9.763,0,0,0-9.645,8.362H1.394A1.393,1.393,0,0,0,0,9.756v5.575a1.393,1.393,0,0,0,1.394,1.393H13.937V40.418a1.394,1.394,0,0,0,1.394,1.394H30.662V82.23a1.393,1.393,0,0,0,1.393,1.393h33.45A1.393,1.393,0,0,0,66.9,82.23V16.724H82.23a1.393,1.393,0,0,0,1.393-1.393V9.756A1.393,1.393,0,0,0,82.23,8.362ZM23.693,2.787a6.962,6.962,0,0,1,1.324.134c.141.027.274.076.412.112a6.859,6.859,0,0,1,.829.258c.153.061.3.137.445.209a6.945,6.945,0,0,1,.688.374c.144.091.283.19.419.291a7.02,7.02,0,0,1,.588.486c.125.115.248.232.364.355a7.052,7.052,0,0,1,.494.6c.1.131.2.258.288.4a7.013,7.013,0,0,1,.4.743c.062.128.135.25.189.382A6.912,6.912,0,0,1,30.5,8.286c.005.026.016.048.021.073a0,0,0,0,1,0,0H16.865A6.981,6.981,0,0,1,23.693,2.787Zm6.969,36.237H16.725v-22.3H30.662Zm0-25.087H2.787V11.15H30.662Zm33.45,66.9H33.45V66.9H64.112Zm0-16.725H33.45V61.324H64.112Zm0-5.575H33.45V55.749H64.112Zm0-5.575H33.45V50.174H64.112Zm0-37.63V47.387H33.45V9.756a9.84,9.84,0,0,0-.052-1c-.011-.108-.034-.214-.049-.322-.03-.219-.057-.438-.1-.652-.027-.134-.068-.263-.1-.395C33.1,7.2,33.059,7.018,33,6.841c-.045-.142-.1-.278-.153-.417-.059-.161-.113-.326-.18-.484-.06-.14-.131-.272-.2-.408s-.14-.3-.219-.449-.159-.262-.239-.392-.165-.281-.257-.415-.188-.251-.281-.376-.186-.255-.286-.376-.214-.237-.323-.355-.205-.231-.315-.34c-.013-.013-.024-.028-.038-.041H57.142a6.977,6.977,0,0,1,6.969,6.969v5.575Zm16.724-1.394H66.9V11.15H80.836Zm0,0" fill="#ffdc7c"/><path d="M238.934,221.867h2.787v2.787h-2.787Zm0,0" transform="translate(-199.909 -185.63)" fill="#ffdc7c"/><path d="M238.934,256h2.787v2.787h-2.787Zm0,0" transform="translate(-199.909 -214.188)" fill="#ffdc7c"/><path d="M256,238.934h2.787v2.787H256Zm0,0" transform="translate(-214.188 -199.909)" fill="#ffdc7c"/><path d="M221.867,238.934h2.787v2.787h-2.787Zm0,0" transform="translate(-185.63 -199.909)" fill="#ffdc7c"/><path d="M341.332,221.867h2.787v2.787h-2.787Zm0,0" transform="translate(-285.583 -185.63)" fill="#ffdc7c"/><path d="M341.332,256h2.787v2.787h-2.787Zm0,0" transform="translate(-285.583 -214.188)" fill="#ffdc7c"/><path d="M358.4,238.934h2.788v2.787H358.4Zm0,0" transform="translate(-299.862 -199.909)" fill="#ffdc7c"/><path d="M324.266,238.934h2.788v2.787h-2.788Zm0,0" transform="translate(-271.304 -199.909)" fill="#ffdc7c"/><path d="M238.934,426.664h2.787v2.788h-2.787Zm0,0" transform="translate(-199.909 -356.978)" fill="#ffdc7c"/><path d="M238.934,460.8h2.787v2.787h-2.787Zm0,0" transform="translate(-199.909 -385.539)" fill="#ffdc7c"/><path d="M256,443.734h2.787v2.787H256Zm0,0" transform="translate(-214.188 -371.26)" fill="#ffdc7c"/><path d="M221.867,443.734h2.787v2.787h-2.787Zm0,0" transform="translate(-185.63 -371.26)" fill="#ffdc7c"/><path d="M341.332,426.664h2.787v2.788h-2.787Zm0,0" transform="translate(-285.583 -356.978)" fill="#ffdc7c"/><path d="M341.332,460.8h2.787v2.787h-2.787Zm0,0" transform="translate(-285.583 -385.539)" fill="#ffdc7c"/><path d="M358.4,443.734h2.788v2.787H358.4Zm0,0" transform="translate(-299.862 -371.26)" fill="#ffdc7c"/><path d="M324.266,443.734h2.788v2.787h-2.788Zm0,0" transform="translate(-271.304 -371.26)" fill="#ffdc7c"/><path d="M358.4,76.8h2.788V90.738H358.4Zm0,0" transform="translate(-299.862 -64.257)" fill="#ffdc7c"/><path d="M358.4,179.2h2.788v2.787H358.4Zm0,0" transform="translate(-299.862 -149.931)" fill="#ffdc7c"/></svg>