<svg xmlns="http://www.w3.org/2000/svg" width="104.348" height="78.049" viewBox="0 0 104.348 78.049"><path d="M104.348,52.227H0V127H3.273v3.271h97.8V127h3.273V52.227ZM55.376,125.242v-7.364h3.886a4.778,4.778,0,0,0,9.1,0h3.886v7.364ZM40.63,117.878a4.778,4.778,0,0,0,9.1,0h3.886v7.364H36.744v-7.364Zm1.911,0h5.275a3.018,3.018,0,0,1-5.275,0Zm18.631,0h5.275a3.018,3.018,0,0,1-5.275,0Zm-24.429-1.762V68.759h9.738a3.025,3.025,0,0,0-.289,1.287h1.762a1.288,1.288,0,0,1,1.287-1.287H49.4a1.132,1.132,0,0,1,0,2.263H47.845V73.9a12.076,12.076,0,0,0-4.336,1.11L39.415,76.93a2.23,2.23,0,0,0,.948,4.249h25.1a2.23,2.23,0,0,0,.948-4.249l-4.095-1.923a12.068,12.068,0,0,0-4.1-1.09V72.777a2.893,2.893,0,0,0,2.453-4.018H72.244v47.357h-35.5ZM53.613,61.354H36.744V53.989H53.613Zm1.762-7.364H72.245v7.364H55.376Zm16.869,9.127V67h-35.5v-3.88ZM102.585,67H74.007v-3.88h28.578V67ZM59.142,69.89a1.133,1.133,0,0,1-1.132,1.132H56.458V73.9a12.1,12.1,0,0,0-3.545.778,12.1,12.1,0,0,0-3.305-.758V72.777a2.893,2.893,0,0,0,2.453-4.018H55.1a3.025,3.025,0,0,0-.289,1.287h1.762a1.288,1.288,0,0,1,1.287-1.287h.155A1.133,1.133,0,0,1,59.142,69.89ZM48.607,75.631a10.209,10.209,0,0,1,1.826.169l-2.4,1.129A2.189,2.189,0,0,0,46.8,79.416H40.364a.468.468,0,0,1-.2-.891L44.259,76.6A10.292,10.292,0,0,1,48.607,75.631ZM48.52,79.05a.442.442,0,0,1,.258-.525L52.872,76.6l.041-.018.041.018,4.094,1.923a.468.468,0,0,1-.2.891H48.977A.442.442,0,0,1,48.52,79.05ZM57.8,76.929l-2.4-1.129a10.144,10.144,0,0,1,6.173.8l4.094,1.923a.468.468,0,0,1-.2.891H59.03A2.19,2.19,0,0,0,57.8,76.929ZM34.982,109.27H1.762v-5.083H13.824a4.778,4.778,0,0,0,9.1,0H34.981v5.083Zm-13.972,1.762a3.018,3.018,0,0,1-5.275,0Zm-5.275-6.845h5.275a3.018,3.018,0,0,1-5.275,0Zm19.247-1.762H1.762V97.342H13.824a4.778,4.778,0,0,0,9.1,0H34.981v5.083ZM15.734,97.342h5.275a3.018,3.018,0,0,1-5.275,0ZM34.982,95.58H1.762V90.5H13.824a4.778,4.778,0,0,0,9.1,0H34.981V95.58ZM15.734,90.5h5.275a3.018,3.018,0,0,1-5.275,0Zm19.247-1.762H1.762V81.37H34.982Zm0-9.127H1.762V72.243H34.982Zm0-9.127H1.762V63.116H34.982ZM1.762,111.033H13.824a4.778,4.778,0,0,0,9.1,0H34.981v5.083H1.762Zm72.245-2.282h28.578v7.364H74.007Zm0-1.762V99.624h28.578v7.364Zm0-9.127V96.454h28.578v1.407Zm0-3.17V68.759H87.331a3.025,3.025,0,0,0-.289,1.287H88.8a1.288,1.288,0,0,1,1.287-1.287h.155a1.132,1.132,0,0,1,0,2.263H88.694V73.9a12.076,12.076,0,0,0-4.336,1.11L80.264,76.93a2.23,2.23,0,0,0,.948,4.249H97.7a2.23,2.23,0,0,0,.948-4.249l-4.095-1.923a12.068,12.068,0,0,0-4.1-1.09V72.777a2.893,2.893,0,0,0,2.453-4.018h9.675V94.692H74.007Zm15.448-19.06a10.292,10.292,0,0,1,4.347.97L97.9,78.525a.468.468,0,0,1-.2.891H81.213a.468.468,0,0,1-.2-.891L85.108,76.6A10.286,10.286,0,0,1,89.455,75.631Zm13.13-14.277H74.007V53.989h28.578v7.364Zm-67.6-7.364v7.364H1.762V53.989H34.982ZM1.762,125.242v-7.364H34.982v7.364Zm97.55,3.271H5.035V127H99.313Zm-25.306-3.271v-7.364h28.578v7.364Z" transform="translate(0 -52.227)" fill="#ffdc7c"/></svg>